<svg xmlns="http://www.w3.org/2000/svg" viewBox="0 0 500 500"><g id="freepik--background-complete--inject-9"><path d="M377.7,354.74a40.77,40.77,0,0,0-17.45-6c-2.85-.3-6-.21-8.25,1.51a1.69,1.69,0,0,0-.85,1.51,1.8,1.8,0,0,0,.8,1c7.1,5.42,17.84,6.1,25.75,1.95" style="fill:#e0e0e0"></path><path d="M377.25,354.25A85.13,85.13,0,0,1,366,344.33a28.45,28.45,0,0,1-7.07-13.07c-.3-1.48-.39-3.19.56-4.37,9,7,16,16.09,17.78,27.36" style="fill:#e0e0e0"></path><path d="M377.61,354.68a40.88,40.88,0,0,1,.2-14.8c1.13-4.83,3.76-9.46,7.89-12.21,1.55,3.63.88,7.81-.21,11.6a56.18,56.18,0,0,1-7.82,16.45" style="fill:#e0e0e0"></path><path d="M386.41,370.46c-5.34.65-10,3.46-14,7.08a26.49,26.49,0,0,0-8,13.74c5.25-.32,9.7-4,12.92-8.17s5.47-8.69,9-12.57" style="fill:#e0e0e0"></path><path d="M388.33,373a34.51,34.51,0,0,1,4-32.65c3.05,10.84,1.93,23.07-4,32.65" style="fill:#e0e0e0"></path><path d="M400,386.84a25,25,0,0,0-23.86,13.73c-.3.59-.56,1.34-.16,1.87a1.76,1.76,0,0,0,1.58.47c4.7-.31,8.87-3.13,12.31-6.36s6.44-6.94,10.24-9.73" style="fill:#e0e0e0"></path><path d="M399.59,386.08a44.43,44.43,0,0,1-.44-24.83c.87-3.19,2.34-6.56,5.3-8.05a1,1,0,0,1,.81-.15,1.09,1.09,0,0,1,.51.6,14.93,14.93,0,0,1,1.25,7.12A44.12,44.12,0,0,1,405.9,368c-.93,4.41-1.42,9.14-3.84,12.94a27.94,27.94,0,0,0-1.54,2.85c-.46,1-.46,1.3-.88,2.07" style="fill:#e0e0e0"></path><path d="M430.39,390.67c-2.28-8.68.14-19.2,5.61-26.32.41-.52.94-1.09,1.6-1,1,.09,1.27,1.43,1.22,2.44a47.47,47.47,0,0,1-8.43,24.9" style="fill:#e0e0e0"></path><path d="M433.17,392.57c10.55,2.74,22.65.08,31.42-6.39a25.41,25.41,0,0,0-17-2.09c-5.68,1.3-10.87,3.85-14.41,8.48" style="fill:#e0e0e0"></path><path d="M435.51,386.79c5.91-9.63,17.23-15.92,28.52-16.49-1.3,4.59-5.07,8.16-9.33,10.31s-9,3.1-13.69,4c-1.82.35-4.32.74-5.5,2.17" style="fill:#e0e0e0"></path><path d="M431,358.74c1.6-5.48,3.21-11,3.65-16.7s-.37-11.63-3.33-16.51c-5.52,10.67-6.07,23.15-.49,33.79" style="fill:#e0e0e0"></path><path d="M449.56,349.35c6.45-11.72,19.61-21.09,32.93-22.4-5.14,12.79-19.15,22.68-32.93,22.4" style="fill:#e0e0e0"></path><path d="M445.5,351.65c9.62,1.47,17.82,7.61,26.81,11.34a12,12,0,0,0,6.06,1.16,4.74,4.74,0,0,0,3-8.39,12.78,12.78,0,0,0-4.4-2.67c-9.79-4.08-20.3-4.18-30.61-1.71" style="fill:#e0e0e0"></path><path d="M439.93,358.4c2.18.62,2.92,1.75,4.65,3.22a50.14,50.14,0,0,0,20.33,10.45c.78.19,1.79.27,2.18-.43s-.09-1.36-.53-1.91a28,28,0,0,0-12.27-8.33c-4.7-1.75-8.76-3.85-14.36-3.4" style="fill:#e0e0e0"></path><path d="M433.64,317.64a38.54,38.54,0,0,0,29.51,10,2,2,0,0,0,1.34-.49c.74-.8-.15-2.05-1-2.72-8.68-6.77-19.18-9.57-29.84-6.83" style="fill:#e0e0e0"></path><path d="M441.1,314.91a41.12,41.12,0,0,1,36.81-6.07c-4.64,4.57-11.07,7-17.54,7.7a55.43,55.43,0,0,1-19.27-1.63" style="fill:#e0e0e0"></path><path d="M438.13,296.18c-.85-8.66-.29-15.49-.9-24.19,0-.69-.19-1.53-.84-1.78-.91-.35-1.66.77-2,1.69A27.71,27.71,0,0,0,438.12,296" style="fill:#e0e0e0"></path><path d="M437.51,297.14c5.87-3.63,10.27-8.37,14.34-13.94,2.83-3.87,5.22-8.52,4.58-13.27-4-.08-7.76,2.11-10.35,5.13a29,29,0,0,0-5.27,10.61c-1.15,3.81-1.95,7.73-3.3,11.47" style="fill:#e0e0e0"></path><path d="M451.6,293.22a115.42,115.42,0,0,0,35.29-20.81c-4.21-1.69-9-.68-13.25,1-9.63,3.89-17.5,10.45-22.22,19.7" style="fill:#e0e0e0"></path><path d="M441.47,301.87c6.52.72,13.14,1.18,19.6.1s12.36-3.58,18.29-6.08a2.15,2.15,0,0,0,1.25-.94,1.45,1.45,0,0,0-.45-1.57,3.8,3.8,0,0,0-1.56-.73c-6.45-1.8-13.42-1-19.77,1.18a92,92,0,0,0-17.36,8" style="fill:#e0e0e0"></path><path d="M404.27,317.94c-4.44-9-4.15-19.45-.31-28.69,2.7,4.11,3,9.36,2.53,14.26s-2,9.95-2.08,14.87" style="fill:#e0e0e0"></path><path d="M386.52,309a40,40,0,0,0-29.74,12.67c5.54.87,11.24-.56,16.28-3s9.52-5.91,14-9.34" style="fill:#e0e0e0"></path><path d="M374.58,305c-5.43-.44-10.66-1.12-15.88.48s-10,5.23-12.09,10.26a28.62,28.62,0,0,0,14.88-2.81A86.57,86.57,0,0,0,374.58,305" style="fill:#e0e0e0"></path><path d="M392.25,305.17c-4.88-3.2-9.9-6.46-15.58-7.78s-12.28-.35-16.25,3.94c4.61,2.7,10.19,3,15.53,3s11.88-.06,16.91,1.72" style="fill:#e0e0e0"></path><path d="M392.28,305.43c-8.35-8.2-11.51-22.93-8.15-34.14a52,52,0,0,1,8.15,34.14" style="fill:#e0e0e0"></path><path d="M415.24,282.2c1.58-3.66,2.68-7.51,4.1-11.23a32.23,32.23,0,0,1,5.83-10.35,15.36,15.36,0,0,1,10.35-5.36,41.7,41.7,0,0,1-20.07,27" style="fill:#e0e0e0"></path><path d="M411.09,287c-2.61-3.59-5.62-8.46-9.15-11.14s-8.14-4.29-12.45-3.26a29,29,0,0,0,21.6,14.4" style="fill:#e0e0e0"></path><path d="M411.92,282.5c-1.71-4.34-3.43-8.73-4.12-13.34s-.27-9.54,2.09-13.57c4.58,8.67,6.06,18,2.26,27" style="fill:#e0e0e0"></path><path d="M415.28,255.59c2.6-8.59,10.46-14.91,19-17.81a7.08,7.08,0,0,1,3.33-.5,2.89,2.89,0,0,1,2.45,2c.31,1.46-.9,2.77-2,3.74a64.32,64.32,0,0,1-22.69,12.53" style="fill:#e0e0e0"></path><path d="M415.38,248.57c.33-5.54.67-11.16,2.47-16.4s5.28-10.17,10.33-12.47c.86,5.59-1.61,11.16-4.59,16S417,245,415.24,250.39" style="fill:#e0e0e0"></path><path d="M415.24,252.38c-2.14-6.26-2.37-14.21-6.11-19.66-2.62-3.81-6.82-6.41-9.08-10.45a15.89,15.89,0,0,0,.53,11.86,34.57,34.57,0,0,0,6.93,9.93c2.78,3,5.15,5.19,7.73,8.32" style="fill:#e0e0e0"></path><path d="M415.28,436.71c-.16,0-.31-41.75-.32-93.25s.11-93.26.28-93.26.31,41.75.32,93.26S415.45,436.71,415.28,436.71Z" style="fill:#e0e0e0"></path><path d="M451.77,311.63a8.9,8.9,0,0,1-1.57.59l-4.32,1.46c-3.64,1.24-8.64,3-14.08,5.27s-10.45,4.18-13.34,6.68a9.83,9.83,0,0,0-2.68,3.54c-.41,1-.48,1.58-.54,1.57a1.28,1.28,0,0,1,0-.43,6.35,6.35,0,0,1,.31-1.22,9.35,9.35,0,0,1,2.61-3.78,23.68,23.68,0,0,1,5.79-3.6c2.31-1.08,4.88-2.2,7.6-3.32,5.45-2.24,10.5-4,14.18-5.11,1.84-.58,3.34-1,4.39-1.28A9.65,9.65,0,0,1,451.77,311.63Z" style="fill:#e0e0e0"></path><path d="M463.73,282.26s-.13.17-.44.47-.79.75-1.34,1.25l-5,4.55L440.3,303.35c-6.5,5.79-12.11,11.31-16,15.48-1.95,2.07-3.49,3.8-4.54,5-.48.56-.88,1-1.21,1.38a2.82,2.82,0,0,1-.45.46,3.24,3.24,0,0,1,.36-.54c.25-.33.62-.83,1.12-1.45,1-1.25,2.49-3,4.4-5.14A211,211,0,0,1,439.9,302.9c6.52-5.77,12.46-10.95,16.77-14.69l5.13-4.4c.57-.48,1-.86,1.41-1.18A2.41,2.41,0,0,1,463.73,282.26Z" style="fill:#e0e0e0"></path><path d="M433.29,309.23c-.17-.07,1.18-3.21,2.54-7.17s2-7.31,2.18-7.28-.23,3.46-1.61,7.47a48.28,48.28,0,0,1-2,5A7.7,7.7,0,0,1,433.29,309.23Z" style="fill:#e0e0e0"></path><path d="M415.32,334.51a7.9,7.9,0,0,1-1-1.16l-2.57-3.29c-2.15-2.79-5.13-6.64-8.47-10.84s-6.41-8-8.63-10.72L392,305.26a7.08,7.08,0,0,1-.91-1.24,7.09,7.09,0,0,1,1.08,1.08c.67.73,1.62,1.8,2.77,3.13,2.31,2.66,5.44,6.4,8.78,10.61s6.28,8.11,8.35,11c1,1.43,1.85,2.59,2.41,3.41A6.87,6.87,0,0,1,415.32,334.51Z" style="fill:#e0e0e0"></path><path d="M407.32,324.24A14.79,14.79,0,0,1,404,318a17.84,17.84,0,0,1-.76-6.33l.27,0c-.12.48-.21.73-.26.73s-.05-.28,0-.78l.27,0a28.56,28.56,0,0,0,1.07,6.15C405.63,321.52,407.48,324.13,407.32,324.24Z" style="fill:#e0e0e0"></path><path d="M397,311.24a11.18,11.18,0,0,0-2.34-1.36,15.76,15.76,0,0,0-6.5-.51,40.88,40.88,0,0,0-6.54,1.05,21.09,21.09,0,0,1-2.69.65A9.22,9.22,0,0,1,381.5,310a30,30,0,0,1,6.61-1.25,14.18,14.18,0,0,1,6.7.73A4.1,4.1,0,0,1,397,311.24Z" style="fill:#e0e0e0"></path><path d="M394.54,308.09c0,.1-1.36-.54-3.58-1.3A37.27,37.27,0,0,0,382,305a36.7,36.7,0,0,0-9.12.46c-2.31.41-3.71.85-3.74.75a3.3,3.3,0,0,1,1-.41,24.14,24.14,0,0,1,2.71-.76,32,32,0,0,1,18.29,1.4,21.79,21.79,0,0,1,2.56,1.16A3.79,3.79,0,0,1,394.54,308.09Z" style="fill:#e0e0e0"></path><path d="M415.24,294.78a74.93,74.93,0,0,1-2.61-9.08c-1.29-5.06-2.19-9.19-2-9.24s1.33,4,2.61,9.09S415.4,294.74,415.24,294.78Z" style="fill:#e0e0e0"></path><path d="M415.41,294.78c-.18.06-.93-2.66-2.9-5.44a23.6,23.6,0,0,0-4.27-4.4,3.9,3.9,0,0,1,1.65.85A13.22,13.22,0,0,1,413,289,12.22,12.22,0,0,1,415.41,294.78Z" style="fill:#e0e0e0"></path><path d="M415.28,414.45c-.06,0-.18-1-.66-2.77a38.9,38.9,0,0,0-2.79-7.23c-2.88-5.9-8.13-13.37-14.8-20.86-3.31-3.78-6.51-7.34-9.23-10.75a75.26,75.26,0,0,1-6.61-9.52,45.32,45.32,0,0,1-3.33-7.07c-.31-.87-.53-1.55-.65-2a3.35,3.35,0,0,1-.18-.72c.06,0,.36.95,1.05,2.66a52.75,52.75,0,0,0,3.48,6.93,79.56,79.56,0,0,0,6.67,9.39c2.73,3.38,5.94,6.92,9.25,10.7,6.69,7.51,11.93,15.08,14.74,21.07a36.36,36.36,0,0,1,2.63,7.36,17.48,17.48,0,0,1,.37,2.1A3.35,3.35,0,0,1,415.28,414.45Z" style="fill:#e0e0e0"></path><path d="M448.26,377.21a14.64,14.64,0,0,1-1.73,1,37.2,37.2,0,0,0-4.48,3,50.74,50.74,0,0,0-5.89,5.37c-2.07,2.19-4.19,4.72-6.37,7.44-4.34,5.45-8.4,10.27-10.83,14.12-1.24,1.91-2.14,3.52-2.73,4.64a13.1,13.1,0,0,1-1,1.74,2,2,0,0,1,.16-.49c.13-.31.31-.77.58-1.35a45.52,45.52,0,0,1,2.57-4.77c2.37-3.94,6.4-8.83,10.73-14.27,2.18-2.72,4.33-5.26,6.44-7.44a47.86,47.86,0,0,1,6-5.33,32.65,32.65,0,0,1,4.63-2.83c.57-.28,1-.46,1.35-.59A1.6,1.6,0,0,1,448.26,377.21Z" style="fill:#e0e0e0"></path><path d="M448.9,389.29a24.13,24.13,0,0,1-3.65.53,48.07,48.07,0,0,0-8.66,1.71,26,26,0,0,0-7.76,4.07c-1.79,1.38-2.63,2.52-2.71,2.46a2.66,2.66,0,0,1,.54-.84,13.78,13.78,0,0,1,1.9-2A23.48,23.48,0,0,1,436.4,391a38.6,38.6,0,0,1,8.81-1.56A19.65,19.65,0,0,1,448.9,389.29Z" style="fill:#e0e0e0"></path><path d="M427.18,396.73c-.19-.11,1.46-2.62,2.73-6s1.48-6.41,1.7-6.37a5.88,5.88,0,0,1-.06,2,21.12,21.12,0,0,1-1.07,4.61,22.16,22.16,0,0,1-2.12,4.24A6,6,0,0,1,427.18,396.73Z" style="fill:#e0e0e0"></path><path d="M458.94,344.77a2.91,2.91,0,0,1-.59.31l-1.72.78c-.75.33-1.66.74-2.69,1.28s-2.23,1.08-3.49,1.83l-2,1.13c-.69.4-1.38.87-2.1,1.33-1.47.89-2.94,2-4.51,3.11a83.75,83.75,0,0,0-9.42,8.28,85.67,85.67,0,0,0-8,9.7c-1.06,1.61-2.11,3.11-3,4.61-.43.75-.88,1.44-1.25,2.15l-1.07,2c-.71,1.28-1.21,2.5-1.71,3.55s-.89,2-1.18,2.73l-.72,1.75a2.65,2.65,0,0,1-.29.59,2.67,2.67,0,0,1,.17-.63c.17-.48.37-1.07.62-1.79a29.88,29.88,0,0,1,1.09-2.79c.47-1.06.95-2.3,1.64-3.6l1-2.06c.36-.72.8-1.43,1.23-2.18.82-1.52,1.86-3.05,2.92-4.68a74.82,74.82,0,0,1,17.51-18.11c1.59-1.11,3.08-2.2,4.57-3.08.74-.45,1.43-.92,2.13-1.31l2-1.1c1.27-.74,2.5-1.26,3.55-1.77s2-.89,2.74-1.18l1.77-.68A2.56,2.56,0,0,1,458.94,344.77Z" style="fill:#e0e0e0"></path><path d="M432.84,362.26a4.27,4.27,0,0,1,1.43-2.14,9.11,9.11,0,0,1,5.79-2.22,15.92,15.92,0,0,1,6.08,1.19,8.73,8.73,0,0,1,2.3,1.12,15.41,15.41,0,0,1-2.44-.71,18,18,0,0,0-5.92-1,9.46,9.46,0,0,0-5.53,1.93A18.64,18.64,0,0,0,432.84,362.26Z" style="fill:#e0e0e0"></path><path d="M428.94,366.28c-.17-.09,1.31-2.25,1.64-5.34s-.55-5.52-.37-5.57.4.54.68,1.55a11.08,11.08,0,0,1-.93,8C429.45,365.85,429,366.32,428.94,366.28Z" style="fill:#e0e0e0"></path><path d="M386.44,420.44c.9,16,5.71,32.18,13.11,48.59h32.16c7.06-16.24,11.53-32.45,12.33-48.59Z" style="fill:#e0e0e0"></path><path d="M438.83,446.26c0,.17-10.59.3-23.65.3s-23.66-.13-23.66-.3,10.59-.3,23.66-.3S438.83,446.09,438.83,446.26Z" style="fill:#fafafa"></path><path d="M438.11,452c0,.17-9.93.3-22.17.3s-22.18-.13-22.18-.3,9.93-.3,22.18-.3S438.11,451.87,438.11,452Z" style="fill:#fafafa"></path><path d="M400.07,430.91a91.66,91.66,0,0,1,0,14.82c-.17,0-.3-3.31-.3-7.41S399.9,430.91,400.07,430.91Z" style="fill:#fafafa"></path><path d="M417.3,430.91c.17,0,.3,3.44.3,7.68s-.13,7.67-.3,7.67-.3-3.44-.3-7.67S417.13,430.91,417.3,430.91Z" style="fill:#fafafa"></path><path d="M433.48,430.78c.17,0,.3,3.51.3,7.83s-.13,7.83-.3,7.83-.3-3.51-.3-7.83S433.31,430.78,433.48,430.78Z" style="fill:#fafafa"></path><path d="M443,430.91c0,.17-12.42.31-27.74.31s-27.74-.14-27.74-.31,12.41-.3,27.74-.3S443,430.75,443,430.91Z" style="fill:#fafafa"></path><rect x="43.45" y="33.41" width="102.47" height="169.61" style="fill:#e0e0e0"></rect><rect x="40.04" y="33.41" width="102.47" height="169.61" style="fill:#ebebeb"></rect><rect x="44.41" y="36.85" width="93.74" height="162.73" style="fill:#fafafa"></rect><rect x="62.25" y="57.99" width="57.64" height="120.44" style="fill:#ebebeb"></rect><path d="M62.25,135.81c-.13-11.25,10-22.23,21.13-23.8,5.31-.75,11,.3,15.92-1.73,8.86-3.64,11.68-15.41,20.59-18.9l.41,87.05h-58Z" style="fill:#e0e0e0"></path></g><g id="freepik--Floor--inject-9"><path d="M449.78,469c0,.15-96.17.26-214.77.26S20.22,469.18,20.22,469s96.15-.26,214.79-.26S449.78,468.89,449.78,469Z" style="fill:#263238"></path></g><g id="freepik--Plant--inject-9"><path d="M68.11,436.25s-5-34.56-4.6-54.66,0-42.72,0-42.72H65.8s-1.57,39.9.14,64,6.2,33.41,6.2,33.41h-4" style="fill:#263238"></path><path d="M83.09,300A6.15,6.15,0,0,0,81,296.9c-1.47-.93-3.4-.54-5,0-7,2.47-13.2,15.52-16,22.38l9.29,31.3C86,335.07,88.87,314.66,83.09,300Z" style="fill:#455a64"></path><path d="M80.43,298.17s0,.14-.13.41l-.46,1.14c-.4,1-1,2.41-1.66,4.19-1.37,3.56-3.11,8.53-4.67,14.13s-2.62,10.75-3.28,14.51c-.33,1.87-.58,3.39-.74,4.45-.08.49-.14.89-.19,1.21a1.83,1.83,0,0,1-.1.42,1.75,1.75,0,0,1,0-.43c0-.32.07-.73.13-1.22.11-1.06.32-2.59.62-4.48a132.23,132.23,0,0,1,8-28.69c.72-1.76,1.33-3.18,1.78-4.15l.52-1.11A1.62,1.62,0,0,1,80.43,298.17Z" style="fill:#263238"></path><path d="M65.07,358.13c-8.71-4.81-13.84-13.86-14.32-23.8-.33-6.95,1.8-13.76,4.22-20.28a2.65,2.65,0,0,1,1-1.48,2.54,2.54,0,0,1,2.38.37c6.33,3.61,10.16,10.48,12.2,17.47A35.15,35.15,0,0,1,72,344.77a23.84,23.84,0,0,1-6.89,13.36" style="fill:#455a64"></path><path d="M65.07,358.13a2.37,2.37,0,0,1,0-.42c0-.32,0-.71,0-1.2,0-1,0-2.55-.13-4.41a118.87,118.87,0,0,0-1.61-14.46c-1-5.61-2.14-10.63-3-14.26-.43-1.78-.78-3.23-1-4.3L59,317.91a1.79,1.79,0,0,1-.07-.42,2.34,2.34,0,0,1,.14.4c.09.3.2.69.34,1.15.29,1,.68,2.47,1.15,4.27.93,3.62,2.15,8.64,3.12,14.26a106.52,106.52,0,0,1,1.51,14.52c0,1.86,0,3.38,0,4.42,0,.49,0,.88,0,1.2A1.37,1.37,0,0,1,65.07,358.13Z" style="fill:#263238"></path><g style="opacity:0.30000000000000004"><path d="M65.07,358.13c-8.71-4.81-13.84-13.86-14.32-23.8-.33-6.95,1.8-13.76,4.22-20.28a2.65,2.65,0,0,1,1-1.48,2.54,2.54,0,0,1,2.38.37c6.33,3.61,10.16,10.48,12.2,17.47A35.15,35.15,0,0,1,72,344.77a23.84,23.84,0,0,1-6.89,13.36"></path></g><path d="M74.9,411c8.57,1.88,15.62,7.93,23.89,10.87,5.47,1.94,11.66,2.63,16,6.45-1-2.64-3.54-4.41-5.95-5.91a106.08,106.08,0,0,0-21.66-10.34c-3.89-1.35-8.11-2.47-12.07-1.36" style="fill:#455a64"></path><path d="M62.51,418.63c-10.74-.17-22-9.31-32.72-9.85,11.18-3.61,27.19-.66,32.72,9.85" style="fill:#455a64"></path><path d="M66.7,392.89a34.87,34.87,0,0,1,17.16-1.17,104.27,104.27,0,0,1,16.75,4.55c-.55-3.72-3.57-6.52-6.4-9a44.24,44.24,0,0,0-6.73-5.17,14.94,14.94,0,0,0-8.06-2.28,12.79,12.79,0,0,0-8.91,4.49,14.77,14.77,0,0,0-3.81,8.58" style="fill:#455a64"></path><path d="M44.67,381c-6.76-5.77-17-5.21-25.87-5a210.79,210.79,0,0,1,40.12,25C59.28,394.76,53.21,388.32,44.67,381Z" style="fill:#455a64"></path><g style="opacity:0.30000000000000004"><path d="M44.67,381c-6.76-5.77-17-5.21-25.87-5a210.79,210.79,0,0,1,40.12,25C59.28,394.76,53.21,388.32,44.67,381Z"></path></g><path d="M69.74,373.07a75.49,75.49,0,0,1,10.39-6c3.55-1.61,6.87-4.18,10.31-6,4.45-2.42,8.31-5.77,12.4-8.76s8.57-5.69,13.58-6.48a26.7,26.7,0,0,0-12.36.72A78.61,78.61,0,0,0,92.43,351c-5.28,2.38-10.64,4.81-15,8.66s-8.2,7.66-7.74,13.42" style="fill:#455a64"></path><path d="M98.6,418.63a1.39,1.39,0,0,1-.34-.14l-.94-.49c-.81-.43-2-1.07-3.43-1.8-.72-.38-1.53-.78-2.4-1.19s-1.79-.85-2.78-1.28a41.22,41.22,0,0,0-6.61-2.3,14.18,14.18,0,0,0-6.89-.17,18.8,18.8,0,0,0-2.91.87,14.44,14.44,0,0,0-2.36,1.21,15.28,15.28,0,0,0-3,2.44c-.62.67-.92,1.07-1,1.05a2.22,2.22,0,0,1,.19-.31,10.58,10.58,0,0,1,.65-.84,13.9,13.9,0,0,1,2.92-2.57,14.45,14.45,0,0,1,2.39-1.28,20.86,20.86,0,0,1,2.95-.92,14.37,14.37,0,0,1,7.06.15,39,39,0,0,1,6.66,2.35c1,.44,1.93.87,2.78,1.32s1.67.83,2.38,1.23c1.45.77,2.6,1.44,3.38,1.91l.9.55A2,2,0,0,1,98.6,418.63Z" style="fill:#263238"></path><path d="M54.5,413.31a2.78,2.78,0,0,1,.67.2,15.46,15.46,0,0,1,1.75.76,21.4,21.4,0,0,1,5.13,3.64,21.07,21.07,0,0,1,3.84,5,14,14,0,0,1,.83,1.71,2.45,2.45,0,0,1,.22.67c-.06,0-.46-.88-1.29-2.25a24.45,24.45,0,0,0-3.87-4.84,24.19,24.19,0,0,0-5-3.67C55.4,413.74,54.47,413.38,54.5,413.31Z" style="fill:#263238"></path><path d="M30.75,380.5a1.59,1.59,0,0,1,.46.13l1.29.46,2,.75c.79.29,1.65.73,2.62,1.16a61.67,61.67,0,0,1,14,8.9,67.27,67.27,0,0,1,6.51,6.42,69.9,69.9,0,0,1,4.63,5.86c1.22,1.73,2.15,3.18,2.79,4.18l.73,1.15a2.37,2.37,0,0,1,.24.41,2.39,2.39,0,0,1-.3-.37c-.19-.25-.46-.62-.8-1.11-.67-1-1.63-2.4-2.88-4.11s-2.82-3.68-4.67-5.78a73.06,73.06,0,0,0-6.5-6.36A65.51,65.51,0,0,0,37,383.24c-1-.44-1.81-.89-2.59-1.2l-2-.81-1.27-.52Z" style="fill:#263238"></path><path d="M82.8,386.85a3.17,3.17,0,0,1-.85-.11l-1-.18c-.38-.07-.83-.07-1.32-.13a13.45,13.45,0,0,0-7.37,1.46,13.23,13.23,0,0,0-3.36,2.49,15.06,15.06,0,0,0-2.16,2.67,22.71,22.71,0,0,0-1.47,2.81,3.25,3.25,0,0,1,.22-.83,11.44,11.44,0,0,1,1-2.12,14.43,14.43,0,0,1,2.14-2.78,13.35,13.35,0,0,1,3.43-2.58,13,13,0,0,1,7.58-1.38c.49.06.94.09,1.33.18l1,.25A4.09,4.09,0,0,1,82.8,386.85Z" style="fill:#263238"></path><path d="M93.59,353.39a1.84,1.84,0,0,1-.41.25l-1.19.65c-1,.56-2.54,1.39-4.36,2.46s-3.95,2.42-6.22,4.05a51.27,51.27,0,0,0-6.94,5.81,17.71,17.71,0,0,0-2.84,3.68c-.71,1.35-1.38,2.65-2,3.91a70.74,70.74,0,0,0-3,6.79,41,41,0,0,0-1.45,4.78c-.27,1.14-.37,1.79-.41,1.79a2.42,2.42,0,0,1,0-.48c0-.31.11-.76.23-1.35a35,35,0,0,1,1.34-4.84A64.91,64.91,0,0,1,69.32,374c.61-1.26,1.28-2.57,2-3.92a17.65,17.65,0,0,1,2.9-3.77,50.31,50.31,0,0,1,7-5.84c2.3-1.62,4.46-2.93,6.29-4s3.36-1.84,4.43-2.36l1.23-.59A2.13,2.13,0,0,1,93.59,353.39Z" style="fill:#263238"></path><path d="M63.49,385.89a5,5,0,0,1-.21-.91c-.12-.66-.28-1.49-.47-2.48a69.49,69.49,0,0,0-2-8.05,68.86,68.86,0,0,0-3.06-7.72l-1-2.3a4.15,4.15,0,0,1-.34-.86,4.1,4.1,0,0,1,.47.79c.29.53.69,1.29,1.16,2.25a57.78,57.78,0,0,1,3.19,7.72,56.32,56.32,0,0,1,1.93,8.12c.17,1.06.29,1.92.35,2.51A3.63,3.63,0,0,1,63.49,385.89Z" style="fill:#263238"></path><path d="M62.72,361.47a29.11,29.11,0,0,0-3.49-11.59A38.24,38.24,0,0,0,33.3,330.55l24,35.77,3.1,6.39C62.52,369.24,63,365.52,62.72,361.47Z" style="fill:#455a64"></path><rect x="41.34" y="431.97" width="55.81" height="9.89" style="fill:#7E57C2"></rect><polygon points="45.5 439.9 50.26 470.6 87.31 470.6 92.98 439.9 45.5 439.9" style="fill:#7E57C2"></polygon><path d="M97.12,441.88c0,.1-12.59.19-28.12.19s-28.12-.09-28.12-.19,12.59-.2,28.12-.2S97.12,441.77,97.12,441.88Z" style="fill:#263238"></path></g><g id="freepik--character-2--inject-9"><rect x="301.51" y="403.98" width="8.29" height="65.01" style="fill:#263238"></rect><rect x="372.53" y="403.41" width="8.29" height="65.01" style="fill:#263238"></rect><rect x="278.05" y="466.41" width="130.44" height="4.04" style="fill:#263238"></rect><rect x="270.5" y="62" width="133.18" height="342.97" style="fill:#455a64"></rect><rect x="403.68" y="62" width="9.61" height="342.97" style="fill:#263238"></rect><rect x="279.2" y="69.46" width="118.09" height="329.73" style="fill:#f5f5f5"></rect><path d="M393.51,117.2c-.14,0-.26-9.08-.26-20.27s.12-20.27.26-20.27.26,9.07.26,20.27S393.66,117.2,393.51,117.2Z" style="fill:#263238"></path><path d="M300.22,155.51s-7.64,7.17-9.39,14.34-7,51.93-6,58.71,8.54,43.79,8.54,43.79l7.07-15.11.86-34.07L307,189.58V170.09Z" style="fill:#ffcaae"></path><path d="M380.43,266.69l-82.86-9.45-4.82,16.51,8.88,125.44h32.43l5.76-105.82,18.8,78.92-.71,26.9h31.64l3.09-28.78S380.9,266.58,380.43,266.69Z" style="fill:#263238"></path><path d="M352.41,91.77,357.7,137c1.05,7.71,2.58,19.13-9.68,20.24h0c-10.72.17-14.77-9.49-15.76-16.68-.46-3.42-.86-6.26-.93-6.61,0,0-11.69.5-14.09-10.81-1.16-5.47-2.64-16.92-3.85-27.3a21.53,21.53,0,0,1,17.18-23.61l1.1-.22C343.6,70.38,351.07,79.79,352.41,91.77Z" style="fill:#ffcaae"></path><path d="M331.3,134a27.85,27.85,0,0,0,13.89-7.31s-1.94,9-13.46,10.24Z" style="fill:#ff935c"></path><path d="M333.61,101.35a1.57,1.57,0,0,0,1.79,1.25,1.5,1.5,0,0,0,1.3-1.7,1.57,1.57,0,0,0-1.79-1.25A1.49,1.49,0,0,0,333.61,101.35Z" style="fill:#263238"></path><path d="M330.08,112.08a11.74,11.74,0,0,0-2.93.06c-.46,0-.9,0-1-.25a2.32,2.32,0,0,1,0-1.38c.21-1.16.42-2.38.64-3.65.87-5.19,1.4-9.42,1.19-9.45s-1.08,4.14-2,9.33c-.2,1.28-.39,2.49-.58,3.66a2.67,2.67,0,0,0,.12,1.79,1.15,1.15,0,0,0,.86.51,3.09,3.09,0,0,0,.78,0A11.82,11.82,0,0,0,330.08,112.08Z" style="fill:#263238"></path><path d="M333.13,90.86c.24.4,1.73-.11,3.58-.25s3.41.08,3.57-.35c.07-.21-.26-.56-.94-.86a5.71,5.71,0,0,0-2.78-.43,5.78,5.78,0,0,0-2.66.88C333.29,90.26,333,90.66,333.13,90.86Z" style="fill:#263238"></path><path d="M353.17,100.51c.19-.13,7.8-3.85,8.95,4.37s-7.34,7.68-7.39,7.45S353.17,100.51,353.17,100.51Z" style="fill:#ffcaae"></path><path d="M356.81,108.86s.15.08.41.16a1.49,1.49,0,0,0,1.08-.13c.82-.44,1.36-1.92,1.19-3.41a4.67,4.67,0,0,0-.69-2,1.64,1.64,0,0,0-1.23-.95.73.73,0,0,0-.79.51c-.08.24,0,.4,0,.42s-.2-.11-.18-.46a.9.9,0,0,1,.25-.56,1.11,1.11,0,0,1,.76-.32,2,2,0,0,1,1.68,1.06,5,5,0,0,1,.82,2.23c.17,1.66-.46,3.33-1.6,3.84a1.55,1.55,0,0,1-1.34,0C356.85,109.06,356.78,108.88,356.81,108.86Z" style="fill:#ff935c"></path><path d="M330.46,117.57c0-.21,1.55-.43,2.85-1.7A9.18,9.18,0,0,0,334.7,114c.32-.53.54-.86.62-.82s0,.42-.22,1a5.7,5.7,0,0,1-1.36,2.13,4.66,4.66,0,0,1-2.23,1.22C330.88,117.69,330.47,117.64,330.46,117.57Z" style="fill:#263238"></path><path d="M317.06,104a1.56,1.56,0,0,0,1.78,1.25,1.5,1.5,0,0,0,1.3-1.7,1.56,1.56,0,0,0-1.78-1.25A1.49,1.49,0,0,0,317.06,104Z" style="fill:#263238"></path><path d="M343.44,72.59c2-2.17,5.34-2.57,8.2-1.81l.06,0c3.16.7,5.28,3.68,6.56,6.65l.2.5A12.15,12.15,0,0,0,363,81.36c.32.13.68.3.76.63a1,1,0,0,1-.42.87A6,6,0,0,1,361,84.18a13.44,13.44,0,0,0,1.26,2c.42.54.91,1.18.69,1.82a1.31,1.31,0,0,1-1.27.75,3.76,3.76,0,0,1-1.48-.46l1.31,2.29a7.31,7.31,0,0,1-3.32.2,79.45,79.45,0,0,1-1.05,8.78c-1.26.16-2.5,0-3.19.81-.94,1.08-1.19,2.93-3,2.47-.94-.23-2-2-2.4-2.89a44.85,44.85,0,0,1-4.29-18.64,14.42,14.42,0,0,0-4.83-2.64l.15.1c-3.33-.71-7.08-1.35-9.92.53-2.21,1.45-3.29,4.07-4.8,6.23A17.08,17.08,0,0,1,313.24,93c0,3.5.9,7.83,1.13,11.07l-3.62-4.82v0a11.79,11.79,0,0,1-.72-1.07l-.08-.1v0a20.33,20.33,0,0,0-1.13-1.72l0,0A2,2,0,0,1,305.52,94a4.32,4.32,0,0,1,.85-1.1,3.22,3.22,0,0,1-2.94,1.17,2.53,2.53,0,0,1-2.07-2.25A2.14,2.14,0,0,1,302.41,90a7.33,7.33,0,0,1-4.19-.39c-.86-.36-1.74-1-1.6-2.07a1.92,1.92,0,0,1,.74-1.19,5.73,5.73,0,0,1,2.86-.83,16.55,16.55,0,0,0,6.93-2.69,8.27,8.27,0,0,1-2.29-1.22,5,5,0,0,1-2-4.7,1.09,1.09,0,0,1,.52-.82c.49-.22,1,.22,1.4.57a4.25,4.25,0,0,0,4.18,1.19,6.91,6.91,0,0,0,2.87-1.25l.08-.12c.35-.47.7-.92,1-1.35h0c2.58-3.28,4.29-4.88,6.76-6.25h21.79Z" style="fill:#263238"></path><path d="M340,74.35a9.1,9.1,0,0,1,1.28.91,8.3,8.3,0,0,1,2.23,3.57,14.59,14.59,0,0,1,.65,2.87c.14,1.06.19,2.19.26,3.39a31.72,31.72,0,0,0,.38,3.76,12.74,12.74,0,0,0,.51,2,4.06,4.06,0,0,0,1.05,1.82A1.72,1.72,0,0,0,348,93a2.57,2.57,0,0,0,1.35-1,6,6,0,0,0,.74-3l-.24.06a9.43,9.43,0,0,0,1.69,2.22,3.4,3.4,0,0,0,2.38.94,2.2,2.2,0,0,0,1.15-.36,1.91,1.91,0,0,0,.7-.88,2,2,0,0,0,.12-1,1.42,1.42,0,0,0-.48-.84l-.11.12A7.43,7.43,0,0,0,358,90.66a7,7,0,0,0,.8.2,1,1,0,0,0,.28,0,1.58,1.58,0,0,0-.27-.08,5.18,5.18,0,0,1-.78-.24A7.6,7.6,0,0,1,355.45,89l-.11.12a1.47,1.47,0,0,1,.29,1.69,1.74,1.74,0,0,1-.63.79,2,2,0,0,1-1.05.31,3.22,3.22,0,0,1-2.21-.89,9.62,9.62,0,0,1-1.63-2.18l-.21-.35,0,.41a5.8,5.8,0,0,1-.7,2.91,2.35,2.35,0,0,1-1.21.89,1.46,1.46,0,0,1-1.43-.29,3.89,3.89,0,0,1-1-1.7,13.32,13.32,0,0,1-.5-1.9,31.32,31.32,0,0,1-.39-3.73c-.07-1.2-.14-2.34-.29-3.41a14.68,14.68,0,0,0-.69-2.9,8,8,0,0,0-2.34-3.59A4.8,4.8,0,0,0,340,74.35Z" style="fill:#455a64"></path><path d="M306,89.89l.1.07.31.17a3.33,3.33,0,0,0,.53.25,5.52,5.52,0,0,0,.74.28,10.24,10.24,0,0,0,5,.27,13.08,13.08,0,0,0,6.59-3.41,22.72,22.72,0,0,0,5.08-7.58c.65-1.48,1.15-3,1.74-4.39a15.31,15.31,0,0,1,2.12-3.8,7.75,7.75,0,0,1,3-2.41,5.56,5.56,0,0,1,1.71-.42,6.24,6.24,0,0,1,1.63.11,6.71,6.71,0,0,1,4.06,2.65,7.82,7.82,0,0,1,.8,1.64s0,0,0-.12-.06-.21-.1-.34a5.68,5.68,0,0,0-.59-1.24,6.68,6.68,0,0,0-4.11-2.78,6.67,6.67,0,0,0-1.69-.13,6.06,6.06,0,0,0-1.78.42A8,8,0,0,0,328,71.59a15.07,15.07,0,0,0-2.17,3.86c-.6,1.41-1.1,2.91-1.75,4.39a22.75,22.75,0,0,1-5,7.5,13,13,0,0,1-6.45,3.4,10.46,10.46,0,0,1-4.94-.18C306.59,90.21,306,89.85,306,89.89Z" style="fill:#455a64"></path><path d="M304.34,85a2.25,2.25,0,0,0,.45.24,8.54,8.54,0,0,0,1.29.46,10.91,10.91,0,0,0,2,.39,13,13,0,0,0,2.5,0,13.43,13.43,0,0,0,2.46-.47,12.6,12.6,0,0,0,1.89-.75,9.91,9.91,0,0,0,1.19-.7c.26-.18.4-.29.39-.31s-.62.36-1.66.83a13.73,13.73,0,0,1-1.88.69,15.19,15.19,0,0,1-2.41.45,15.39,15.39,0,0,1-2.45,0,14.53,14.53,0,0,1-2-.33C305,85.24,304.36,85,304.34,85Z" style="fill:#455a64"></path><path d="M341,102.24l-12.71,2.37s-.11,5.07,3,7.25,7.8-.35,9-2.87A12.56,12.56,0,0,0,341,102.24Z" style="fill:#455a64"></path><path d="M324.43,105.33l-12.71,2.37s-.11,5.07,3,7.25,7.81-.35,9-2.87A12.45,12.45,0,0,0,324.43,105.33Z" style="fill:#455a64"></path><path d="M328.32,104.61l-4.11.77,0,1.23a5.31,5.31,0,0,1,4.62-.72Z" style="fill:#455a64"></path><path d="M339.78,103.49l-9.89,1.85s-.09,3.94,2.31,5.64,6.08-.27,7-2.23A9.73,9.73,0,0,0,339.78,103.49Z" style="fill:#263238"></path><path d="M323,106.63l-9.9,1.85s-.09,3.94,2.31,5.64,6.08-.27,7-2.23A9.84,9.84,0,0,0,323,106.63Z" style="fill:#263238"></path><path d="M341,102.24l12.45-1.3a2.87,2.87,0,0,1-1.37,1.89L341,105.2Z" style="fill:#455a64"></path><path d="M330.54,106.25c-.07,0-.09.41,0,1a5.47,5.47,0,0,0,1.08,2.32,3.94,3.94,0,0,0,2.18,1.4c.67.14,1.08,0,1.07-.06s-.39-.12-.95-.34a4.62,4.62,0,0,1-1.85-1.37C331,107.81,330.74,106.19,330.54,106.25Z" style="fill:#fff"></path><path d="M313.16,108.3c-.07,0-.15.46,0,1.19a6.23,6.23,0,0,0,3.33,4.52c.67.32,1.13.37,1.15.3a13,13,0,0,1-2.88-2.51C313.44,110.1,313.34,108.28,313.16,108.3Z" style="fill:#fff"></path><path d="M333.1,98.18c.24.21,1.47-.92,3.35-1.09s3.35.66,3.53.4c.09-.11-.17-.51-.81-.9a4.72,4.72,0,0,0-2.86-.62,4.57,4.57,0,0,0-2.64,1.16C333.14,97.64,333,98.08,333.1,98.18Z" style="fill:#263238"></path><path d="M316.49,97.94c.22.33,1.66-.15,3.44-.32s3.27,0,3.44-.4c.07-.18-.24-.47-.88-.7a6.31,6.31,0,0,0-2.67-.26,6.42,6.42,0,0,0-2.58.82C316.65,97.43,316.39,97.78,316.49,97.94Z" style="fill:#263238"></path><path d="M316.43,101.1c.24.21,1.47-.92,3.35-1.09s3.35.66,3.53.4c.09-.11-.17-.51-.81-.9a4.79,4.79,0,0,0-2.86-.62,4.57,4.57,0,0,0-2.64,1.16C316.47,100.56,316.31,101,316.43,101.1Z" style="fill:#263238"></path><path d="M358.18,133.73l25.12,7.39-2,68.24.46,46,.86,11.29s-14.53,7-36.56,6.73-49.78-12.29-49.78-12.29,6.66-27.51,7.54-32.51S306,195.44,306,195.44v-7.7l.37-41.62L330.49,138s5.1,8,12.27,7.47C354.73,144.54,358.18,133.73,358.18,133.73Z" style="fill:#7E57C2"></path><path d="M307,145.92a25.66,25.66,0,0,0-15,18.37c-1.71,8.41-4.9,25.46-4.9,25.46a46,46,0,0,0,21.08,5.79Z" style="fill:#7E57C2"></path><path d="M387.69,143.65s11.79,5.62,7.1,27c-3.54,16.14-7.8,26.16-14.08,40.08-4.73,10.49-12.53,10.7-18,9.39-5.93-1.41-50.93-30.65-50.93-30.65l6.11-13.21,42.27,18.35,13-34.41S380.52,140,387.69,143.65Z" style="fill:#ffcaae"></path><path d="M383.3,141.12c1.41.51,15.46,5.44,13.64,20.25-1.67,13.68-5.81,35.47-5.81,35.47a104,104,0,0,1-16.31-3.91A36.41,36.41,0,0,1,361.87,185l14.56-41.83Z" style="fill:#7E57C2"></path><path d="M391.13,196.84a2.61,2.61,0,0,1-.62-.05l-1.75-.24c-1.52-.2-3.7-.6-6.38-1.2a67.13,67.13,0,0,1-9.22-2.81,33.75,33.75,0,0,1-10.2-6,10.05,10.05,0,0,1-1.32-1.45l-.08-.1.05-.13c2.63-7.44,5-14.09,6.71-19l2.07-5.67.58-1.52a2,2,0,0,1,.24-.52,2.17,2.17,0,0,1-.14.55c-.13.41-.29.92-.5,1.56l-1.91,5.72-6.56,19,0-.23a9.77,9.77,0,0,0,1.25,1.36,33.77,33.77,0,0,0,10,5.89,71.13,71.13,0,0,0,9.13,2.91c2.65.63,4.82,1.09,6.33,1.35l1.73.34A2.72,2.72,0,0,1,391.13,196.84Z" style="fill:#263238"></path><path d="M308.11,160.66a2.67,2.67,0,0,1,0,.65c0,.49-.05,1.11-.1,1.88-.09,1.69-.22,4-.38,6.88-.31,5.88-.72,13.88-1.17,22.73s-.91,16.92-1.32,22.73c-.21,2.9-.4,5.25-.56,6.88-.08.76-.14,1.38-.2,1.86a3.08,3.08,0,0,1-.1.65,2.78,2.78,0,0,1,0-.66c0-.48.06-1.1.1-1.87.1-1.69.23-4,.39-6.89.3-5.87.71-13.88,1.17-22.73s.91-16.91,1.32-22.72c.2-2.91.4-5.26.55-6.88.08-.77.15-1.39.2-1.87A4.22,4.22,0,0,1,308.11,160.66Z" style="fill:#263238"></path><path d="M319.42,177.13c-.17-.28-4-7.33-4-7.33l-9.21-11.58s-2.85.75-1.52,4.58,4,5.51,4,7-.84,2.19-4,2.45-21.16.22-23,1.1-1.58,3-.09,3.29,13.91.39,14.34.35a4.15,4.15,0,0,1,1.19.19s-2.7,1-2.3,3.11a2.41,2.41,0,0,0,2.43,2.07,3.48,3.48,0,0,0-.73,2.61,3.54,3.54,0,0,0,1.84,2,1.83,1.83,0,0,0,.6,2.8c1.86,1.31,2.2,1.93,5.26,1.83s10.26-.32,10.26-.32Z" style="fill:#ffcaae"></path><path d="M304.9,254a3.07,3.07,0,0,1,.67.29l1.88.93c.81.42,1.81.92,3,1.43s2.51,1.17,4,1.74l2.38.94c.82.32,1.71.59,2.61.91,1.8.66,3.77,1.2,5.83,1.8A96.07,96.07,0,0,0,353,265.43c2.15-.09,4.19-.15,6.1-.36,1-.09,1.87-.14,2.75-.26l2.53-.34c1.62-.19,3.06-.5,4.33-.73s2.37-.45,3.25-.66l2.05-.46a3.22,3.22,0,0,1,.73-.12,4.19,4.19,0,0,1-.7.22l-2,.55c-.88.25-2,.52-3.24.76s-2.71.59-4.33.8l-2.54.38c-.88.13-1.81.19-2.76.29-1.91.23-4,.3-6.13.41a92.46,92.46,0,0,1-27.82-3.38c-2.07-.62-4.05-1.17-5.85-1.85-.9-.33-1.79-.61-2.62-.95l-2.37-1c-1.52-.6-2.84-1.27-4-1.82s-2.16-1.06-3-1.51l-1.84-1A3.59,3.59,0,0,1,304.9,254Z" style="fill:#263238"></path><path d="M310.91,224.92c-.12-.07,9.16-15.72,20.73-34.94s21.05-34.75,21.17-34.67-9.16,15.71-20.73,34.94S311,225,310.91,224.92Z" style="fill:#fff"></path><path d="M305.27,253.87c-.12-.08,13.85-22.66,31.21-50.44s31.53-50.24,31.65-50.16-13.85,22.65-31.21,50.44S305.39,254,305.27,253.87Z" style="fill:#fff"></path><path d="M397.29,399.19c0-2.4-.1-139.4-.25-329.73l.25.25H279.2l.26-.26c0,131.06-.06,249-.08,329.73l-.18-.17,118.09.17-118.09.18H279v-.18c0-80.77-.06-198.67-.09-329.73V69.2h118.6v.25C397.4,259.79,397.3,396.8,397.29,399.19Z" style="fill:#263238"></path><path d="M310.33,299s-.25,0-.69-.07a11,11,0,0,1-1.82-.52,15.33,15.33,0,0,1-8.71-8.59,10.43,10.43,0,0,1-.54-1.82c-.09-.44-.12-.69-.08-.69s.32.93,1,2.36a16.8,16.8,0,0,0,8.51,8.4C309.39,298.71,310.36,298.92,310.33,299Z" style="fill:#455a64"></path><path d="M381.22,288a7.33,7.33,0,0,1-1.69-1.65,24.63,24.63,0,0,1-3.16-4.75,24.13,24.13,0,0,1-2-5.36,7.87,7.87,0,0,1-.35-2.33,51.94,51.94,0,0,0,2.8,7.45A50.78,50.78,0,0,0,381.22,288Z" style="fill:#455a64"></path><path d="M298.77,265.24a9.37,9.37,0,0,1-.58,4.94,9.52,9.52,0,0,1-2.58,4.26A43.36,43.36,0,0,0,297.7,270,43.74,43.74,0,0,0,298.77,265.24Z" style="fill:#455a64"></path><path d="M339.29,289.6a49.65,49.65,0,0,1-.68-7.25,52.07,52.07,0,0,1-.16-7.28,49.65,49.65,0,0,1,.68,7.25A52.07,52.07,0,0,1,339.29,289.6Z" style="fill:#455a64"></path><path d="M344.7,274.54s.18-.08.49,0a2.08,2.08,0,0,1,1.15.69,2.36,2.36,0,0,1,.58,1.94,2.37,2.37,0,0,1-4.1,1,2.36,2.36,0,0,1-.34-2,2.11,2.11,0,0,1,.71-1.14c.26-.2.44-.23.45-.2a2.74,2.74,0,0,0-.8,1.42,2.06,2.06,0,0,0,.36,1.62,1.94,1.94,0,0,0,3.25-.77,2.06,2.06,0,0,0-.39-1.61A2.78,2.78,0,0,0,344.7,274.54Z" style="fill:#455a64"></path><path d="M282.45,154.22c-.14,0-.26-16.57-.26-37s.12-37,.26-37,.26,16.57.26,37S282.6,154.22,282.45,154.22Z" style="fill:#263238"></path><path d="M282.45,164.45c-.14,0-.26-.87-.26-1.94s.12-1.94.26-1.94.26.87.26,1.94S282.6,164.45,282.45,164.45Z" style="fill:#263238"></path><path d="M370.36,74c0,.15-18.82.26-42,.26s-42-.11-42-.26,18.81-.26,42-.26S370.36,73.86,370.36,74Z" style="fill:#263238"></path><path d="M391.38,356c-.15,0-.26-24.79-.26-55.37s.11-55.36.26-55.36.26,24.78.26,55.36S391.52,356,391.38,356Z" style="fill:#263238"></path><path d="M376,394.91c0,.14-20.43.26-45.62.26s-45.63-.12-45.63-.26,20.42-.27,45.63-.27S376,394.76,376,394.91Z" style="fill:#263238"></path><path d="M412.17,126.43c.23.2.83,74.71.83,74.71l3.33,5,2.5-5.26-3.65-74.49Z" style="fill:#7E57C2"></path><path d="M412.17,126.43c.23.2.83,74.71.83,74.71l3.33,5,2.5-5.26-3.65-74.49Z" style="opacity:0.30000000000000004"></path><g style="opacity:0.30000000000000004"><path d="M372.39,61.94a107.73,107.73,0,0,0,29.06,57.86c2.38,2.45,4.95,4.88,6.23,8,1.54,3.82,1,8.11.4,12.18l-3.37,23.49c-.66,4.67-1.33,9.46-.33,14.06s4,9.08,8.54,10.43l.64-65.7L395,102.13,383.3,80.18l-5.88-18.24Z"></path></g><path d="M374.73,62s13.35,51.9,38.13,58.22l-.69-6.5S389.35,102.61,380.7,62Z" style="fill:#7E57C2"></path><polygon points="411.07 112.98 407.17 118.26 411.07 126.7 416.46 126.43 418.83 116.58 414.31 112.98 411.07 112.98" style="fill:#7E57C2"></polygon><polygon points="417.35 115.4 413.3 91.11 413 113.17 417.35 115.4" style="fill:#7E57C2"></polygon><polygon points="411.07 126.7 408.49 179.74 420.83 191.55 427.15 172.1 416.46 126.43 411.07 126.7" style="fill:#7E57C2"></polygon><polygon points="410.68 134.87 417.56 131.12 416.94 128.46 410.85 131.37 410.68 134.87" style="fill:#fff"></polygon><path d="M413,137.34a27.39,27.39,0,0,1,0-5.33,28.1,28.1,0,0,1,.56-5.3,26.45,26.45,0,0,1,0,5.33A28.24,28.24,0,0,1,413,137.34Z" style="fill:#263238"></path><path d="M415.09,137.44a27,27,0,0,1-.5-5.35,27.59,27.59,0,0,1,0-5.38,28,28,0,0,1,.5,5.35A28.52,28.52,0,0,1,415.09,137.44Z" style="fill:#263238"></path><polygon points="414.99 185.96 425.59 176.9 420.63 191.35 414.99 185.96" style="fill:#fff"></polygon><polygon points="411.67 126.67 414.04 127.97 414.82 131.55 414.82 127.12 416.11 126.43 411.67 126.67" style="opacity:0.30000000000000004"></polygon><polygon points="424.4 160.21 408.86 172.17 408.6 177.6 425.41 164.5 424.4 160.21" style="fill:#fff"></polygon><polygon points="421.45 147.67 409.6 157.09 409.34 162.52 422.41 151.84 421.45 147.67" style="fill:#fff"></polygon><polygon points="410.03 148.12 419.75 140.46 419.04 137.44 410.24 143.9 410.03 148.12" style="fill:#fff"></polygon><path d="M427.15,172.1a6.9,6.9,0,0,1-.36,1.43l-1.16,3.85c-1,3.25-2.43,7.72-4,12.65-.18.55-.35,1.09-.52,1.6L421,192l-.29-.28c-3.47-3.32-6.53-6.3-8.72-8.45-1-1-1.89-1.9-2.56-2.56a6.84,6.84,0,0,1-.89-1,8,8,0,0,1,1,.85l2.68,2.44c2.25,2.09,5.35,5,8.82,8.33l-.42.11c.16-.51.34-1.06.52-1.6,1.6-4.93,3.07-9.39,4.17-12.6.53-1.53,1-2.81,1.32-3.8A8.48,8.48,0,0,1,427.15,172.1Z" style="fill:#263238"></path><polygon points="408.49 116.47 417.01 124.16 418.05 119.84 410.03 114.39 408.49 116.47" style="fill:#fff"></polygon><path d="M408.86,122.3a23.23,23.23,0,0,1,3.07-3.85,22.76,22.76,0,0,1,3.46-3.5,24.61,24.61,0,0,1-3.07,3.84A23.73,23.73,0,0,1,408.86,122.3Z" style="fill:#263238"></path><path d="M411.07,126.7a6.82,6.82,0,0,1,1.45-.19l3.94-.28-.19.15c.59-2.58,1.38-6,2.28-9.73l0-.13.12.29-5.82-3.44.1,0-1.93-.21.2-.09c-1.21,1.59-2.21,2.89-2.92,3.79a11,11,0,0,1-1.16,1.37,8.56,8.56,0,0,1,1-1.51c.65-1,1.6-2.29,2.76-3.9l.07-.1.13,0,1.92.17h.05l.05,0,5.84,3.39.17.1,0,.19,0,.12c-.9,3.73-1.74,7.14-2.4,9.7l0,.15h-.15l-3.94.1A7,7,0,0,1,411.07,126.7Z" style="fill:#263238"></path><polygon points="397.66 109.88 401.35 104.94 403.69 107.31 399.76 112.12 397.66 109.88" style="fill:#fff"></polygon><polygon points="391.08 100.94 394.95 96.93 393.31 94.37 389.68 98.59 391.08 100.94" style="fill:#fff"></polygon><polygon points="384.96 89.7 388.74 86.13 387.59 83.68 383.87 87.38 384.96 89.7" style="fill:#fff"></polygon><polygon points="380.28 78.82 384.34 75.3 383.37 72.46 379.37 76.4 380.28 78.82" style="fill:#fff"></polygon></g><g id="freepik--speech-bubble--inject-9"><path d="M222.41,124.74l4.31-8.52a25.58,25.58,0,1,1,4.64,7.91h0Z" style="fill:#fff"></path><path d="M222.41,124.74l9-.54a.06.06,0,0,0,.06-.06,0,0,0,0,0,0,0v0l-.1.07a26,26,0,0,0,4.23,4,25.07,25.07,0,0,0,6.24,3.38,25.8,25.8,0,0,0,3.85,1.11l2.09.32a6.38,6.38,0,0,0,1.08.1l1.1.06a25.75,25.75,0,0,0,24.45-15.57,26.17,26.17,0,0,0,2-11.54,22.16,22.16,0,0,0-.34-3,11.16,11.16,0,0,0-.33-1.5c-.12-.5-.24-1-.38-1.49a26.54,26.54,0,0,0-2.56-5.68A23.52,23.52,0,0,0,271,91.73a11,11,0,0,0-1-1.18c-.34-.37-.67-.77-1-1.13a26.1,26.1,0,0,0-4.74-3.74,25.66,25.66,0,0,0-36.24,10c-.31.67-.66,1.31-.92,2l-.73,2c-.21.66-.35,1.32-.52,2a16.44,16.44,0,0,0-.41,1.92,25.65,25.65,0,0,0,1.26,12.76v0c-2.74,5.48-4.06,8.14-4.26,8.54.2-.4,1.56-3,4.37-8.49a0,0,0,0,0,0,0,25.46,25.46,0,0,1-1.19-12.68,16.66,16.66,0,0,1,.4-1.91c.18-.64.32-1.3.53-2l.73-2c.26-.66.61-1.29.92-1.95a25.48,25.48,0,0,1,40.59-6.15c.35.36.68.75,1,1.13a11.92,11.92,0,0,1,1,1.16,24.05,24.05,0,0,1,1.73,2.53,26.46,26.46,0,0,1,2.53,5.62c.13.49.25,1,.38,1.48a10.53,10.53,0,0,1,.32,1.48,21.55,21.55,0,0,1,.34,3,26,26,0,0,1-1.94,11.41,25.49,25.49,0,0,1-24.21,15.47l-1.09,0a7.6,7.6,0,0,1-1.07-.1l-2.07-.31a25.87,25.87,0,0,1-3.83-1.09,25.16,25.16,0,0,1-6.21-3.34,26.21,26.21,0,0,1-4.23-3.9.05.05,0,0,0-.08,0,.08.08,0,0,0,0,.08h0l.05-.09Z" style="fill:#263238"></path><path d="M261.61,105.11a6.79,6.79,0,0,0-1.89-3.65,6.56,6.56,0,0,0-3.5-2,5.33,5.33,0,0,0-5.75,2.93,5.17,5.17,0,0,0-1.64-1.65,5.41,5.41,0,0,0-4.17-.68,6.61,6.61,0,0,0-3.36,2.23,6.86,6.86,0,0,0-1.63,3.78,8.34,8.34,0,0,0,1.21,5.09,11.75,11.75,0,0,0,4.19,3.66c2.71,1.51,6.27,3.39,6.27,3.39s2.88-2.31,5.48-4a12,12,0,0,0,3.93-4A8.36,8.36,0,0,0,261.61,105.11Z" style="fill:#7E57C2"></path></g><g id="freepik--character-1--inject-9"><path d="M215.38,435l-.49,27.76,6,22.06a2.84,2.84,0,0,1-2.19,3.53h0a2.82,2.82,0,0,1-2.51-.72c-4.25-4-19.58-18.85-19.59-20.59,0-2.24-1.54-29.73-1.54-29.73Z" style="fill:#455a64"></path><path d="M218.65,488.37l-22.24-24.49,0,2.07a3.42,3.42,0,0,0,.67,2.51,242.34,242.34,0,0,0,18.73,19.63c.68.66,1.88.49,2.81.28Z" style="fill:#263238"></path><path d="M202.08,455.79a1.72,1.72,0,0,1,.49,2.24,1.66,1.66,0,0,1-2.22.5,1.81,1.81,0,0,1-.5-2.38,1.71,1.71,0,0,1,2.36-.26" style="fill:#fff"></path><path d="M212.24,476.28a6.08,6.08,0,0,1,5.61-2.8c0-.07-.33-.29-1-.37a4.53,4.53,0,0,0-4.34,2.16C212.21,475.84,212.17,476.25,212.24,476.28Z" style="fill:#263238"></path><path d="M214.23,480c.14.12,1-.78,2.46-1.2s2.66-.19,2.7-.37-1.26-.72-2.88-.22S214.09,479.91,214.23,480Z" style="fill:#263238"></path><path d="M208.53,471.53c.13.13,1.49-1.27,3.66-2.12s4.11-.79,4.11-1-2-.52-4.34.42A6.36,6.36,0,0,0,208.53,471.53Z" style="fill:#263238"></path><path d="M208,463.08c.08.17,1.61-.48,3.6-.56s3.58.39,3.64.21a7.09,7.09,0,0,0-7.24.35Z" style="fill:#263238"></path><path d="M207.91,454.93c.09.16,1.62-.77,3.73-.69a13.78,13.78,0,0,1,3.69.91c0-.06-.26-.41-.91-.77a6.21,6.21,0,0,0-5.57-.16C208.19,454.54,207.87,454.87,207.91,454.93Z" style="fill:#263238"></path><path d="M211.58,452.69a2.28,2.28,0,0,0,0-1.05,7.42,7.42,0,0,0-.85-2.74,3.24,3.24,0,0,0-1.4-1.54,1.15,1.15,0,0,0-1.29.26,1.91,1.91,0,0,0-.43,1.26,4,4,0,0,0,3.54,3.7,4.66,4.66,0,0,0,4.57-2.46,1.62,1.62,0,0,0,.07-1.35,1.13,1.13,0,0,0-1.18-.59,4,4,0,0,0-1.82,1,8.22,8.22,0,0,0-1.88,2.17c-.35.58-.46.95-.42,1a12.53,12.53,0,0,1,2.56-2.79,3.88,3.88,0,0,1,1.61-.8.62.62,0,0,1,.65.32,1.13,1.13,0,0,1-.1.88,4.14,4.14,0,0,1-4,2.09,3.49,3.49,0,0,1-3.06-3.09,1.37,1.37,0,0,1,.27-.89.63.63,0,0,1,.71-.16,3,3,0,0,1,1.2,1.28A10.66,10.66,0,0,1,211.58,452.69Z" style="fill:#263238"></path><path d="M141.93,432.59l1.6,23.82s-23.71,7.9-23.84,12.33L166,469l-1-37.22Z" style="fill:#455a64"></path><g style="opacity:0.6000000000000001"><path d="M157.79,454a1.9,1.9,0,0,1,1.37,2.12,1.82,1.82,0,0,1-2.09,1.38,2,2,0,0,1-1.44-2.25A1.89,1.89,0,0,1,158,454" style="fill:#fff"></path></g><path d="M166,469l-.09-3.75-44.76,1.28a3.2,3.2,0,0,0-1.72,2.51Z" style="fill:#263238"></path><path d="M142.77,456.2c0,.23,1.15.3,2.28,1s1.76,1.62,2,1.53-.18-1.4-1.56-2.21S142.71,456,142.77,456.2Z" style="fill:#263238"></path><path d="M138,458.36c0,.22.94.58,1.74,1.51s1.05,1.94,1.28,1.92.33-1.3-.69-2.44S138,458.15,138,458.36Z" style="fill:#263238"></path><path d="M135.4,464.26c.21,0,.48-1.1-.13-2.32s-1.7-1.68-1.79-1.49.59.84,1.08,1.85S135.17,464.25,135.4,464.26Z" style="fill:#263238"></path><path d="M143,450.73c.1.21,1.13-.14,2.41-.09s2.29.42,2.4.22-.87-1-2.38-1S142.89,450.56,143,450.73Z" style="fill:#263238"></path><g style="opacity:0.30000000000000004"><polygon points="142.25 437.31 142.53 441.55 165.28 440.64 165.19 436.81 142.25 437.31"></polygon></g><path d="M142.77,445.92a4.49,4.49,0,0,0,2.32-.08,10.64,10.64,0,0,0,2.41-.83,10.28,10.28,0,0,0,1.31-.74,3,3,0,0,0,.68-.57,1,1,0,0,0,.07-1.21,1.22,1.22,0,0,0-1-.48,3.11,3.11,0,0,0-.87.14,8.21,8.21,0,0,0-1.42.54,8.06,8.06,0,0,0-2.1,1.47c-1,1-1.38,1.89-1.3,1.93s.6-.65,1.67-1.51a9.56,9.56,0,0,1,2-1.23,8.52,8.52,0,0,1,1.32-.45c.49-.14.9-.16,1,.05s.05.12,0,.26a2,2,0,0,1-.5.42c-.4.28-.81.52-1.2.74a13.8,13.8,0,0,1-2.22.93A17.35,17.35,0,0,0,142.77,445.92Z" style="fill:#263238"></path><path d="M143.08,446.23a3.69,3.69,0,0,0,.54-2.25,7.4,7.4,0,0,0-.4-2.53,7.12,7.12,0,0,0-.63-1.39,1.93,1.93,0,0,0-1.52-1.13,1.09,1.09,0,0,0-.94.68,3.11,3.11,0,0,0-.22.86A5.38,5.38,0,0,0,140,442a5.33,5.33,0,0,0,1.07,2.36c.94,1.17,1.89,1.42,1.91,1.34s-.73-.53-1.46-1.66a5.27,5.27,0,0,1-.8-2.16,4.63,4.63,0,0,1,0-1.34c.06-.49.23-.9.41-.85s.64.35.84.73a7.89,7.89,0,0,1,.61,1.24,8.13,8.13,0,0,1,.52,2.3C143.17,445.35,143,446.2,143.08,446.23Z" style="fill:#263238"></path><path d="M171.3,88.84,166,134.41c-1.07,7.76-2.6,19.26,9.75,20.39h0c10.79.16,14.87-9.56,15.85-16.81.47-3.43.87-6.3.94-6.65,0,0,11.77.5,14.19-10.88,1.17-5.5,2.66-17,3.88-27.48a21.69,21.69,0,0,0-17.3-23.77l-1.1-.22C180.16,67.31,172.64,76.79,171.3,88.84Z" style="fill:#ffcaae"></path><path d="M192.54,131.35a28.15,28.15,0,0,1-14-7.36s2,9.06,13.55,10.3Z" style="fill:#ff935c"></path><path d="M190.22,98.49a1.58,1.58,0,0,1-1.8,1.26A1.52,1.52,0,0,1,187.11,98a1.57,1.57,0,0,1,1.8-1.26A1.5,1.5,0,0,1,190.22,98.49Z" style="fill:#263238"></path><path d="M193.78,109.3a11,11,0,0,1,2.95,0c.45,0,.9,0,1-.25a2.35,2.35,0,0,0,0-1.39c-.21-1.17-.42-2.39-.65-3.67-.87-5.23-1.4-9.49-1.19-9.52s1.09,4.17,2,9.4c.2,1.28.4,2.51.58,3.68a2.61,2.61,0,0,1-.12,1.81,1.12,1.12,0,0,1-.86.5,3.26,3.26,0,0,1-.79,0A11.68,11.68,0,0,1,193.78,109.3Z" style="fill:#263238"></path><path d="M190.7,87.93c-.24.4-1.74-.11-3.6-.25s-3.43.08-3.6-.35c-.07-.21.27-.57.95-.87a5.8,5.8,0,0,1,2.8-.43,5.91,5.91,0,0,1,2.68.88C190.54,87.32,190.81,87.73,190.7,87.93Z" style="fill:#263238"></path><path d="M170.52,97.64c-.19-.12-7.85-3.87-9,4.41s7.39,7.73,7.44,7.49S170.52,97.64,170.52,97.64Z" style="fill:#ffcaae"></path><path d="M166.87,106.05s-.16.08-.42.16a1.44,1.44,0,0,1-1.08-.13c-.83-.44-1.37-1.93-1.21-3.43a4.9,4.9,0,0,1,.7-2,1.63,1.63,0,0,1,1.24-1,.73.73,0,0,1,.79.51c.08.25,0,.41.05.43s.19-.12.17-.47a.9.9,0,0,0-.25-.56,1.07,1.07,0,0,0-.77-.32,2,2,0,0,0-1.68,1.07,5,5,0,0,0-.83,2.23c-.18,1.68.46,3.36,1.61,3.87a1.54,1.54,0,0,0,1.35,0C166.82,106.25,166.89,106.07,166.87,106.05Z" style="fill:#ff935c"></path><path d="M193.39,114.82c.05-.21-1.56-.43-2.86-1.71a9,9,0,0,1-1.41-1.89c-.32-.53-.54-.87-.63-.83s0,.42.23,1a5.9,5.9,0,0,0,1.37,2.14,4.76,4.76,0,0,0,2.24,1.23C193,114.94,193.38,114.89,193.39,114.82Z" style="fill:#263238"></path><path d="M206.89,101.42a1.58,1.58,0,0,1-1.8,1.26,1.5,1.5,0,0,1-1.31-1.71,1.57,1.57,0,0,1,1.79-1.26A1.51,1.51,0,0,1,206.89,101.42Z" style="fill:#263238"></path><path d="M227.46,84.59a1.92,1.92,0,0,0-.74-1.2,5.82,5.82,0,0,0-2.89-.84,16.67,16.67,0,0,1-7-2.71,7.94,7.94,0,0,0,2.3-1.22,5,5,0,0,0,2-4.73,1.12,1.12,0,0,0-.53-.83c-.49-.22-1,.22-1.4.58a4.29,4.29,0,0,1-4.22,1.19,7.09,7.09,0,0,1-2.88-1.25l-.08-.13L211,72.09h0c-2.6-3.31-4.89-5.66-7.38-7-3.65-2-10-3.45-14.13-2.9s-8.13,3.35-9.2,7.38c-2-2.18-5.39-2.58-8.26-1.82l-.06,0c-3.19.71-5.32,3.71-6.6,6.7l-.21.5a12.12,12.12,0,0,1-4.59,3.49c-.32.14-.68.3-.76.64a1,1,0,0,0,.42.87,6,6,0,0,0,2.34,1.34,13.66,13.66,0,0,1-1.28,2c-.42.54-.91,1.19-.69,1.83a1.28,1.28,0,0,0,1.27.75,3.8,3.8,0,0,0,1.5-.46l-1.32,2.31a7.13,7.13,0,0,0,3.34.19,80.09,80.09,0,0,0,1.06,8.85c1.27.16,2.51,0,3.21.81,1,1.09,1.2,3,3.06,2.49.94-.23,2-2,2.42-2.9a45.2,45.2,0,0,0,4.32-18.78,14.78,14.78,0,0,1,4.86-2.66l-.15.11c3.35-.72,7.13-1.36,10,.53,2.22,1.46,3.31,4.09,4.83,6.28A17.21,17.21,0,0,0,210.72,90c0,3.53-.9,7.89-1.13,11.15l3.64-4.85v0c.27-.36.5-.72.73-1.08l.08-.11h0a20.61,20.61,0,0,1,1.14-1.73l0,0a2,2,0,0,0,3.29-2.34,4.32,4.32,0,0,0-.85-1.1,3.24,3.24,0,0,0,2.95,1.17,2.55,2.55,0,0,0,2.09-2.27,2.16,2.16,0,0,0-1.06-1.87,7.26,7.26,0,0,0,4.22-.39C226.71,86.31,227.6,85.64,227.46,84.59Z" style="fill:#263238"></path><path d="M183.78,71.31a9.1,9.1,0,0,0-1.28.91,8.32,8.32,0,0,0-2.25,3.6,14.64,14.64,0,0,0-.65,2.89c-.14,1.06-.2,2.21-.27,3.41a30.4,30.4,0,0,1-.38,3.79,12.86,12.86,0,0,1-.51,2,4.23,4.23,0,0,1-1.05,1.83,1.74,1.74,0,0,1-1.69.34,2.56,2.56,0,0,1-1.36-1,6,6,0,0,1-.75-3.07l.24.06a9.8,9.8,0,0,1-1.7,2.24,3.48,3.48,0,0,1-2.39.94,2.3,2.3,0,0,1-1.16-.36,1.85,1.85,0,0,1-.71-.89,2.06,2.06,0,0,1-.12-1.06,1.45,1.45,0,0,1,.48-.84l.11.12a7.51,7.51,0,0,1-2.7,1.55,7.66,7.66,0,0,1-.81.2,1,1,0,0,1-.28,0l.27-.08a7.38,7.38,0,0,0,.79-.24,7.78,7.78,0,0,0,2.62-1.58l.11.12a1.48,1.48,0,0,0-.29,1.7,1.72,1.72,0,0,0,.64.8,2.08,2.08,0,0,0,1.05.31,3.28,3.28,0,0,0,2.23-.9,9.56,9.56,0,0,0,1.64-2.2l.21-.34,0,.4a5.75,5.75,0,0,0,.71,2.93,2.28,2.28,0,0,0,1.21.9,1.43,1.43,0,0,0,1.44-.29,3.94,3.94,0,0,0,1-1.71,13.23,13.23,0,0,0,.5-1.92,29.48,29.48,0,0,0,.39-3.75c.08-1.21.14-2.36.29-3.43a15.62,15.62,0,0,1,.7-2.92,8.17,8.17,0,0,1,2.36-3.62A4.8,4.8,0,0,1,183.78,71.31Z" style="fill:#455a64"></path><path d="M218,87l-.11.07-.31.17a3.33,3.33,0,0,1-.53.25,7.18,7.18,0,0,1-.74.29,10.41,10.41,0,0,1-5,.27,13.23,13.23,0,0,1-6.63-3.43,22.86,22.86,0,0,1-5.11-7.63c-.67-1.5-1.17-3-1.76-4.43a15.33,15.33,0,0,0-2.13-3.82,8,8,0,0,0-3.07-2.43,5.77,5.77,0,0,0-1.72-.42,6.26,6.26,0,0,0-1.64.11,6.86,6.86,0,0,0-2.59,1.14,6.68,6.68,0,0,0-1.5,1.53,7.79,7.79,0,0,0-.81,1.65s0,0,0-.12l.1-.34a5.21,5.21,0,0,1,.6-1.25,6.66,6.66,0,0,1,4.14-2.8,6.67,6.67,0,0,1,1.69-.13,6.19,6.19,0,0,1,1.8.42,8.21,8.21,0,0,1,3.17,2.48A15.43,15.43,0,0,1,198,72.41c.59,1.43,1.1,2.94,1.76,4.42a22.68,22.68,0,0,0,5,7.55,13,13,0,0,0,6.49,3.43,10.63,10.63,0,0,0,5-.18A16.15,16.15,0,0,0,218,87Z" style="fill:#455a64"></path><path d="M219.68,82a1.69,1.69,0,0,1-.44.24,10.39,10.39,0,0,1-1.3.47,11.88,11.88,0,0,1-2,.39,13.16,13.16,0,0,1-2.52,0,13.69,13.69,0,0,1-2.47-.48,12.91,12.91,0,0,1-1.91-.75,9.91,9.91,0,0,1-1.19-.7c-.27-.19-.41-.3-.4-.32s.63.37,1.68.84a13.42,13.42,0,0,0,1.89.69,14.38,14.38,0,0,0,2.43.45,14.54,14.54,0,0,0,2.47,0,13.51,13.51,0,0,0,2-.33C219,82.27,219.66,82,219.68,82Z" style="fill:#455a64"></path><path d="M182.75,99.39l12.8,2.38s.11,5.1-3,7.3-7.86-.35-9.09-2.89A12.53,12.53,0,0,1,182.75,99.39Z" style="fill:#455a64"></path><path d="M199.46,102.5l12.79,2.39s.12,5.1-3,7.29-7.86-.35-9.1-2.88A12.63,12.63,0,0,1,199.46,102.5Z" style="fill:#455a64"></path><path d="M195.55,101.77l4.14.78,0,1.23a5.37,5.37,0,0,0-4.65-.72Z" style="fill:#455a64"></path><path d="M184,100.65l10,1.86s.09,4-2.33,5.68-6.12-.27-7.08-2.25A9.78,9.78,0,0,1,184,100.65Z" style="fill:#263238"></path><path d="M201,103.81l10,1.86s.09,4-2.33,5.68-6.12-.27-7.08-2.25A9.78,9.78,0,0,1,201,103.81Z" style="fill:#263238"></path><path d="M182.75,99.39l-12.53-1.31a2.85,2.85,0,0,0,1.38,1.9l11.18,2.39Z" style="fill:#455a64"></path><path d="M193.31,103.42c.07,0,.09.42-.05,1.06a5.45,5.45,0,0,1-1.09,2.34,4,4,0,0,1-2.19,1.4c-.67.15-1.09,0-1.08,0s.39-.12,1-.34a4.62,4.62,0,0,0,1.85-1.38C192.86,105,193.11,103.36,193.31,103.42Z" style="fill:#fff"></path><path d="M210.81,105.49c.07,0,.15.46,0,1.2a6.27,6.27,0,0,1-1.14,2.67,6.15,6.15,0,0,1-2.22,1.87c-.67.33-1.13.38-1.16.31a13.14,13.14,0,0,0,2.91-2.53C210.53,107.3,210.63,105.47,210.81,105.49Z" style="fill:#fff"></path><path d="M190.74,95.3c-.24.21-1.48-.93-3.38-1.1s-3.37.66-3.55.41.17-.52.81-.92a4.79,4.79,0,0,1,2.88-.61,4.54,4.54,0,0,1,2.65,1.16C190.69,94.76,190.85,95.2,190.74,95.3Z" style="fill:#263238"></path><path d="M207.46,95.06c-.22.33-1.68-.15-3.47-.32s-3.29,0-3.46-.41c-.07-.18.25-.47.89-.7a6.2,6.2,0,0,1,2.68-.26,6.53,6.53,0,0,1,2.6.82C207.29,94.55,207.56,94.9,207.46,95.06Z" style="fill:#263238"></path><path d="M207.52,98.24c-.24.21-1.48-.93-3.37-1.1s-3.38.66-3.56.41.17-.52.82-.92a4.76,4.76,0,0,1,2.87-.61,4.61,4.61,0,0,1,2.66,1.16C207.48,97.7,207.64,98.14,207.52,98.24Z" style="fill:#263238"></path><path d="M223.84,153s7.69,7.21,9.45,14.43,7,52.29,6.05,59.12-8.61,44.08-8.61,44.08l-7.12-15.21-.86-34.3L217,187.32V167.7Z" style="fill:#ffcaae"></path><path d="M142.49,268.91s30.07,8.82,41.88,6.12,44.14-12.73,44.14-12.73l-.75-3s-55,10-55.27,10.14-19.05-2.65-19.05-2.65l-10.31-2.22Z" style="opacity:0.30000000000000004"></path><path d="M166.07,130.91l-25.88,7.62,2,68.7-.45,46.34-.88,11.36s14.64,7.08,36.81,6.78,50.12-12.38,50.12-12.38-6.7-27.7-7.59-32.72S218,193.22,218,193.22v-7.75l-1.4-42-24.29-8.17s-4.62,7.8-11.84,7.23A15.75,15.75,0,0,1,166.07,130.91Z" style="fill:#7E57C2"></path><path d="M216.62,143.44c.6.15,12.8,4.89,15.56,18.42,1.72,8.46,4.93,25.63,4.93,25.63a46.41,46.41,0,0,1-21.22,5.83Z" style="fill:#7E57C2"></path><g style="opacity:0.30000000000000004"><path d="M233.51,173.49a3.79,3.79,0,0,0-2.38-.4c-5,.26-10,.54-14.76,2.18-5.08,1.78-9.46,5-13.87,8.12-12.1,8.46-24.91,15.86-37.69,23.25-3.77,2.17-8.05,4.43-12.26,3.32-4-1.06-6.26-5.48-10.35-4.77l-.1,8.37c4.11,4.29,9,7.75,14.9,8.46,5.3.63,10.59-1.22,15.33-3.67,15.1-7.79,27-21.87,43.48-26.07,3-.76,6.1-1.19,8.79-2.69,4.24-2.36,6.68-6.92,8.89-11.24C234.3,176.77,235,174.51,233.51,173.49Z"></path></g><path d="M135.77,141.08s-11.87,5.66-7.14,27.21c3.56,16.25,7.85,26.34,14.17,40.35,4.76,10.57,12.61,10.78,18.12,9.46,6-1.43,51.27-30.86,51.27-30.86l-6.14-13.3-42.56,18.47L150.4,157.77S143,137.37,135.77,141.08Z" style="fill:#ffcaae"></path><path d="M140.19,138.53c-1.42.52-15.56,5.47-13.73,20.39,1.69,13.77,5.85,35.71,5.85,35.71a104.9,104.9,0,0,0,16.42-3.94,36.66,36.66,0,0,0,13-7.94l-14.65-42.12Z" style="fill:#7E57C2"></path><path d="M132.31,194.63a2.73,2.73,0,0,1,.61-.15l1.74-.34c1.52-.26,3.7-.73,6.37-1.37a71.41,71.41,0,0,0,9.2-2.92,34.1,34.1,0,0,0,10.08-5.93,9.92,9.92,0,0,0,1.26-1.37l0,.23-6.61-19.15c-.8-2.39-1.45-4.34-1.93-5.76l-.49-1.57a2.08,2.08,0,0,1-.14-.56,4.25,4.25,0,0,1,.23.53c.16.4.35.91.59,1.54.51,1.4,1.22,3.33,2.08,5.7l6.76,19.1.05.12-.08.11a10.76,10.76,0,0,1-1.33,1.46,34,34,0,0,1-10.27,6,68,68,0,0,1-9.28,2.83c-2.7.6-4.9,1-6.43,1.21l-1.76.24A2.61,2.61,0,0,1,132.31,194.63Z" style="fill:#263238"></path><path d="M215.89,158.2a3.08,3.08,0,0,1,.1.65c0,.49.12,1.11.2,1.88.16,1.63.35,4,.56,6.93.41,5.85.87,13.94,1.33,22.87s.87,17,1.18,22.89c.16,2.88.29,5.23.39,6.93,0,.78.07,1.4.1,1.89a2.78,2.78,0,0,1,0,.66,2.63,2.63,0,0,1-.11-.65c0-.49-.11-1.11-.2-1.88-.15-1.63-.35-4-.55-6.93-.42-5.85-.87-13.94-1.33-22.88s-.88-17-1.18-22.88c-.16-2.88-.29-5.23-.39-6.93,0-.78-.08-1.4-.1-1.89A2.78,2.78,0,0,1,215.89,158.2Z" style="fill:#263238"></path><path d="M204.5,174.79c.17-.28,4.07-7.39,4.07-7.39l9.27-11.66s2.88.76,1.53,4.62-4,5.55-4,7,.84,2.21,4.06,2.47,21.3.22,23.14,1.11,1.59,3,.09,3.31-14,.39-14.44.35a4.42,4.42,0,0,0-1.19.2s2.71,1,2.31,3.13a2.42,2.42,0,0,1-2.45,2.08,2.77,2.77,0,0,1-1.11,4.61,1.84,1.84,0,0,1-.6,2.82c-1.88,1.32-2.22,2-5.3,1.84s-10.33-.32-10.33-.32Z" style="fill:#ffcaae"></path><path d="M219.13,252.2a3.57,3.57,0,0,1-.63.39l-1.85,1c-.8.45-1.8,1-3,1.52s-2.51,1.23-4,1.82l-2.39,1c-.83.33-1.72.62-2.63.95-1.81.68-3.81,1.24-5.89,1.87a93.77,93.77,0,0,1-28,3.4c-2.18-.11-4.25-.18-6.17-.41-1-.11-1.89-.17-2.78-.3l-2.56-.38c-1.63-.21-3.08-.55-4.36-.81s-2.38-.51-3.26-.76l-2-.55a3.58,3.58,0,0,1-.7-.23,5.13,5.13,0,0,1,.73.13l2.06.46c.9.21,2,.46,3.28.67s2.73.54,4.36.73l2.55.34c.88.12,1.81.17,2.77.27,1.92.21,4,.26,6.14.36a106.8,106.8,0,0,0,14.06-.68,104.61,104.61,0,0,0,13.81-2.71c2.08-.6,4.07-1.15,5.88-1.81.9-.32,1.79-.59,2.63-.92l2.39-.95c1.53-.57,2.87-1.22,4.06-1.75s2.2-1,3-1.43l1.9-.94A5.08,5.08,0,0,1,219.13,252.2Z" style="fill:#263238"></path><path d="M143.09,265c-.48-.12-12.3,104.42-12.3,104.42l9.07,84.46h27.36L165,371.27,184,291.82l8.82,162h25.7l12.87-181.78-4.86-16.62Z" style="fill:#263238"></path><path d="M229.45,274.83a19.68,19.68,0,0,1-8.95-8.26c.13-.09,1.7,2.18,4.18,4.46S229.53,274.69,229.45,274.83Z" style="fill:#455a64"></path><path d="M183.27,290.07a52.77,52.77,0,0,1-1-7.21,51.7,51.7,0,0,1-.52-7.27,50.05,50.05,0,0,1,1,7.21A49,49,0,0,1,183.27,290.07Z" style="fill:#455a64"></path><path d="M187.58,275a1,1,0,0,1,.6.07,2.5,2.5,0,0,1,1.28,1.06,2.8,2.8,0,0,1,.32,2.45,2.8,2.8,0,0,1-5.07,0,2.81,2.81,0,0,1,.29-2.45,2.58,2.58,0,0,1,1.26-1.08c.38-.13.6-.09.6-.07a3.12,3.12,0,0,0-1.55,1.33,2.6,2.6,0,0,0-.16,2.1,2.37,2.37,0,0,0,4.19,0,2.57,2.57,0,0,0-.19-2.09A3.1,3.1,0,0,0,187.58,275Z" style="fill:#455a64"></path><path d="M149.88,269.47a8.88,8.88,0,0,1-.14,2.68,18.44,18.44,0,0,1-2.13,6.12,22.33,22.33,0,0,1-4,5.08,10.3,10.3,0,0,1-2.07,1.7,19.39,19.39,0,0,1,1.81-1.95,27.13,27.13,0,0,0,3.83-5.09,20.94,20.94,0,0,0,2.21-5.93C149.71,270.48,149.8,269.46,149.88,269.47Z" style="fill:#455a64"></path><path d="M214.2,298.45a3.1,3.1,0,0,1-1,0,10.86,10.86,0,0,1-2.62-.57,12.5,12.5,0,0,1-8.36-14.07,11.25,11.25,0,0,1,.75-2.57,3.06,3.06,0,0,1,.47-.86,26.55,26.55,0,0,0-.86,3.49,12.66,12.66,0,0,0,8.13,13.67A24.31,24.31,0,0,0,214.2,298.45Z" style="fill:#455a64"></path><path d="M214.2,387.46c-.1.1-3.77-3.49-8.2-8s-7.94-8.3-7.83-8.4,3.77,3.5,8.2,8S214.31,387.36,214.2,387.46Z" style="fill:#455a64"></path></g></svg>