<svg xmlns="http://www.w3.org/2000/svg" viewBox="0 0 500 500"><g id="freepik--Floor--inject-4"><ellipse id="freepik--floor--inject-4" cx="250" cy="359.15" rx="229.21" ry="132.34" style="fill:#fafafa"></ellipse></g><g id="freepik--Shadows--inject-4"><path id="freepik--Shadow--inject-4" d="M422,320.78c-10.3,5.94-10.3,15.59,0,21.53s27,5.95,37.3,0,10.3-15.59,0-21.53S432.34,314.83,422,320.78Z" style="fill:#ebebeb"></path><polygon id="freepik--shadow--inject-4" points="260.06 404.35 378.88 472.95 443.76 435.44 324.94 366.84 260.06 404.35" style="fill:#ebebeb"></polygon><path id="freepik--shadow--inject-4" d="M297.19,387.26a13.36,13.36,0,0,1-2.11,4.9,23.26,23.26,0,0,1-7.91,7c-13.68,7.9-35.87,7.9-49.55,0a23.16,23.16,0,0,1-7.91-7,13.5,13.5,0,0,1-2.1-4.9h0c-1.22-5.94,2.13-12.13,10-16.68,13.68-7.91,35.87-7.91,49.55,0C295.06,375.13,298.41,381.32,297.19,387.26Z" style="fill:#ebebeb"></path><path id="freepik--shadow--inject-4" d="M55.15,365.52,13.64,341.6a1.07,1.07,0,0,1,0-2l102.6-59.45a3.84,3.84,0,0,1,3.49,0l41.51,23.92a1.06,1.06,0,0,1,0,2L58.64,365.52A3.84,3.84,0,0,1,55.15,365.52Z" style="fill:#ebebeb"></path><ellipse id="freepik--shadow--inject-4" cx="154.95" cy="419.94" rx="67.84" ry="39.17" style="fill:#ebebeb"></ellipse></g><g id="freepik--Shelf--inject-4"><g id="freepik--shelf--inject-4"><polygon points="140.26 76.65 109.68 58.99 12.14 115.29 12.14 118.64 42.72 136.3 140.26 80.01 140.26 76.65" style="fill:#ebebeb"></polygon><polygon points="42.72 132.94 140.26 76.65 109.68 58.99 12.14 115.29 42.72 132.94" style="fill:#fafafa"></polygon><polygon points="42.72 132.94 42.72 136.3 12.14 118.64 12.14 115.29 42.72 132.94" style="fill:#e6e6e6"></polygon><polygon points="111.31 28.37 131.14 39.82 131.14 77.55 111.31 66.09 111.31 28.37" style="fill:#e0e0e0"></polygon><path d="M130.51,40.45l-19.2-11a8,8,0,0,1-4.39,2.4l19,11A19.46,19.46,0,0,0,130.51,40.45Z" style="fill:#fff"></path><path d="M124.11,42.74a4.13,4.13,0,0,0,3.69,0L131,40.88a1.12,1.12,0,0,0,0-2.12L112.11,27.91l-.8.46,18.61,10.74a.67.67,0,0,1,0,1.27l-3,1.7a2.46,2.46,0,0,1-2.21,0L106.1,31.36l-.91.52Z" style="fill:#fafafa"></path><path d="M105.2,31.88V69.6l18.91,10.86a4.13,4.13,0,0,0,3.69,0L131,78.6a1.27,1.27,0,0,0,.76-1V39.82a1.27,1.27,0,0,1-.76,1.06l-3.23,1.86a4.13,4.13,0,0,1-3.69,0Z" style="fill:#e0e0e0"></path><path d="M126,43.18a3.83,3.83,0,0,0,1.85-.44L131,40.88a1.27,1.27,0,0,0,.76-1.06V77.55a1.27,1.27,0,0,1-.76,1l-3.23,1.86a3.83,3.83,0,0,1-1.85.44Z" style="fill:#f0f0f0"></path><polygon points="103.2 33.02 123.03 44.48 123.03 82.2 103.2 70.75 103.2 33.02" style="fill:#ebebeb"></polygon><path d="M122.4,45.1l-19.2-11a8.09,8.09,0,0,1-4.38,2.4l19,11A19.36,19.36,0,0,0,122.4,45.1Z" style="fill:#fff"></path><path d="M116,47.39a4.07,4.07,0,0,0,3.69,0l3.23-1.85a1.12,1.12,0,0,0,0-2.12L104,32.56l-.81.46,18.61,10.75a.66.66,0,0,1,0,1.26l-3,1.71a2.46,2.46,0,0,1-2.21,0L98,36l-.9.53Z" style="fill:#fafafa"></path><path d="M97.09,36.53V74.26L116,85.11a4.07,4.07,0,0,0,3.69,0l3.23-1.85a1.27,1.27,0,0,0,.76-1.06V44.48a1.27,1.27,0,0,1-.76,1.05l-3.23,1.86a4.07,4.07,0,0,1-3.69,0Z" style="fill:#e0e0e0"></path><path d="M117.84,47.83a3.83,3.83,0,0,0,1.85-.44l3.23-1.86a1.27,1.27,0,0,0,.76-1.05V82.2a1.27,1.27,0,0,1-.76,1.06l-3.23,1.85a3.72,3.72,0,0,1-1.85.44Z" style="fill:#f0f0f0"></path><polygon points="89.66 43.05 109.49 54.5 103.33 93.37 83.5 81.92 89.66 43.05" style="fill:#ebebeb"></polygon><path d="M108.71,55.05,89.51,44a10.67,10.67,0,0,1-5.11,2l19,11A25.06,25.06,0,0,0,108.71,55.05Z" style="fill:#fff"></path><path d="M101.44,56.83a5.21,5.21,0,0,0,4,.18l3.77-1.54c1.19-.49,1.33-1.36.31-1.94L90.6,42.67l-.94.38,18.61,10.74c.61.35.52.87-.19,1.16l-3.51,1.42a3.08,3.08,0,0,1-2.39-.11L83.58,45.54,82.52,46Z" style="fill:#fafafa"></path><path d="M82.52,46,76.36,84.83,95.28,95.69a5.12,5.12,0,0,0,4,.18l3.78-1.54c.59-.24.92-.58,1-.93l6.16-38.87c-.06.36-.39.69-1,.94L105.44,57a5.12,5.12,0,0,1-4-.18Z" style="fill:#e0e0e0"></path><path d="M103.38,57.32a5.1,5.1,0,0,0,2.06-.31l3.78-1.54c.59-.25.92-.58,1-.94L104,93.4c-.06.35-.39.69-1,.93l-3.78,1.54a4.78,4.78,0,0,1-2.06.31Z" style="fill:#f0f0f0"></path><g id="freepik--Picture--inject-4"><g id="freepik--Frame--inject-4"><polygon points="56.71 113.65 58.12 114.33 84.13 99.31 82.73 98.63 56.71 113.65" style="fill:#fafafa"></polygon><polygon points="82.73 98.63 57.98 112.92 54.38 75.89 79.13 61.62 82.73 98.63" style="fill:#fff"></polygon><path d="M82.54,56.88,51.73,74.66,56,118.32l30.8-17.78Zm1.59,42.43-26,15L54.38,75.89l26-15Z" style="fill:#f0f0f0"></path><polygon points="84.13 99.31 82.73 98.63 79.13 61.62 80.4 60.87 84.13 99.31" style="fill:#e0e0e0"></polygon><polygon points="82.53 56.88 81.11 56.22 50.31 74 51.73 74.66 82.53 56.88" style="fill:#fafafa"></polygon><polygon points="50.31 74 51.73 74.66 55.98 118.32 54.55 117.67 50.31 74" style="fill:#e0e0e0"></polygon></g><g id="freepik--Land--inject-4"><polygon points="81.64 97.92 58.82 111.1 58.22 104.86 62.46 86.54 66.51 92.79 65.67 98.06 72.41 78.62 81.03 91.69 81.64 97.92" style="fill:#f0f0f0"></polygon><path d="M62.11,78.83a3.21,3.21,0,0,0-1.51,2.82c.1,1,.94,1.4,1.87.87A3.22,3.22,0,0,0,64,79.7C63.88,78.68,63,78.29,62.11,78.83Z" style="fill:#f0f0f0"></path></g></g><g id="freepik--Pot--inject-4"><path id="freepik--shadow--inject-4" d="M43.89,111.08c4.23,2.44,4.23,6.39,0,8.83a16.92,16.92,0,0,1-15.28,0c-4.22-2.44-4.22-6.39,0-8.83A16.86,16.86,0,0,1,43.89,111.08Z" style="opacity:0.05"></path><path d="M29.38,117.23c-3.68-3.75-5.84-13.12-2.25-16.1H45.37c3.59,3,1.43,12.34-2.24,16.09l-.1.11-.13.12-.33.3-.09.07-.28.21a4.66,4.66,0,0,1-.47.3,12.14,12.14,0,0,1-10.95,0h0a3.46,3.46,0,0,1-.47-.31l-.26-.19-.11-.09-.32-.28-.15-.15A.6.6,0,0,1,29.38,117.23Z" style="fill:#f5f5f5"></path><path d="M43.79,99.71c4.16,2.4,4.16,6.3,0,8.7a16.69,16.69,0,0,1-15.08,0c-4.16-2.4-4.16-6.3,0-8.7A16.63,16.63,0,0,1,43.79,99.71Z" style="fill:#fff"></path><path d="M40.84,101.41c2.53,1.46,2.53,3.83,0,5.3a10.15,10.15,0,0,1-9.17,0c-2.54-1.47-2.54-3.84,0-5.3A10.15,10.15,0,0,1,40.84,101.41Z" style="fill:#ebebeb"></path><path d="M31.67,103.92a10.15,10.15,0,0,1,9.17,0,4.21,4.21,0,0,1,1.51,1.4,4.28,4.28,0,0,1-1.51,1.39,10.15,10.15,0,0,1-9.17,0,4.24,4.24,0,0,1-1.52-1.39A4.17,4.17,0,0,1,31.67,103.92Z" style="fill:#e0e0e0"></path><path d="M40.28,105.32a21.38,21.38,0,0,0,3.32-4.41c1.53-2.71,1.81-6.34,1-6.79s-4,3.17-4,3.17a19.29,19.29,0,0,0,.34-4.62c-.13-2.41-.72-4.61-1.41-5s-2.24,2.6-2.9,4.81-1.06,4-1.06,4a33.54,33.54,0,0,0-1.19-5.08c-.8-2.29-1.53-2.81-2.1-2.58s-.94,1.29-1.1,4.34a30.09,30.09,0,0,0,.13,4.37s-1.13-1.25-2.4-2.46-2-1.52-2.37-1.26S26,96.1,28.18,100a21.6,21.6,0,0,0,4,5.34S35.2,107.23,40.28,105.32Z" style="fill:#ebebeb"></path></g></g></g><g id="freepik--Lamp--inject-4"><g id="freepik--lamp--inject-4"><path d="M461.71,326.89h0c0-3.1-2-6.21-6.13-8.58-8.21-4.74-21.52-4.74-29.73,0-4.1,2.37-6.14,5.48-6.14,8.58h0v2.91h0c.05,3.06,2.11,6.12,6.16,8.45,8.21,4.74,21.52,4.74,29.73,0,4.05-2.33,6.1-5.39,6.15-8.45h0Z" style="fill:#ebebeb"></path><path d="M425.83,318.31c-8.21,4.74-8.21,12.42,0,17.16s21.52,4.74,29.73,0,8.2-12.42,0-17.16S434,313.57,425.83,318.31Z" style="fill:#f5f5f5"></path><path d="M443,107.78h-4.53V325.53h0a1,1,0,0,0,.64,1,3.54,3.54,0,0,0,3.2,0,1.06,1.06,0,0,0,.65-1h0Z" style="fill:#e0e0e0"></path><path d="M470.16,100.09h0l-11-40.84H422.05l-10.84,40.84h0c-2,5.4.74,11.24,8.18,15.43,11.75,6.63,30.81,6.63,42.57,0C469.42,111.33,472.14,105.49,470.16,100.09Z" style="fill:#ebebeb"></path><path d="M427.51,68c7.28,4.1,19.08,4.1,26.36,0s7.28-10.75,0-14.85-19.08-4.11-26.36,0S420.24,63.87,427.51,68Z" style="fill:#f5f5f5"></path><path d="M440.69,68.46a23.66,23.66,0,0,1-11.41-2.63c-2.67-1.5-4.14-3.38-4.14-5.29s1.47-3.78,4.14-5.28a26,26,0,0,1,22.83,0c2.67,1.5,4.13,3.38,4.13,5.28s-1.46,3.79-4.13,5.29A23.7,23.7,0,0,1,440.69,68.46Z" style="fill:#e0e0e0"></path></g></g><g id="freepik--Furniture--inject-4"><g id="freepik--Drawer--inject-4"><polygon points="63.93 342.38 60.37 360.07 56.9 362.07 53.46 360.09 49.87 342.38 56.9 338.32 63.93 342.38" style="fill:#e0e0e0"></polygon><polygon points="63.93 342.38 60.37 360.07 56.9 362.07 53.46 360.09 49.87 342.38 56.9 338.32 63.93 342.38" style="opacity:0.05"></polygon><polygon points="56.9 362.07 56.9 346.44 63.93 342.38 60.37 360.07 56.9 362.07" style="fill:#ebebeb"></polygon><polygon points="63.93 342.38 61.63 353.81 56.9 356.54 52.19 353.82 49.87 342.38 56.9 338.32 63.93 342.38" style="opacity:0.05"></polygon><polygon points="33.02 324.54 29.45 342.22 25.98 344.22 22.55 342.24 18.95 324.54 25.98 320.48 33.02 324.54" style="fill:#e0e0e0"></polygon><polygon points="33.02 324.54 29.45 342.22 25.98 344.22 22.55 342.24 18.95 324.54 25.98 320.48 33.02 324.54" style="opacity:0.05"></polygon><polygon points="25.98 344.22 25.98 328.6 33.02 324.54 29.45 342.22 25.98 344.22" style="fill:#ebebeb"></polygon><polygon points="33.02 324.54 30.71 335.96 25.98 338.69 21.28 335.97 18.95 324.54 25.98 320.48 33.02 324.54" style="opacity:0.05"></polygon><polygon points="155.38 289.58 151.81 307.27 148.35 309.27 144.91 307.29 141.32 289.59 148.35 285.53 155.38 289.58" style="opacity:0.05"></polygon><polygon points="148.35 309.27 148.35 293.64 155.38 289.58 151.81 307.27 148.35 309.27" style="fill:#ebebeb"></polygon><polygon points="155.38 289.58 153.07 301.01 148.35 303.74 143.64 301.02 141.32 289.59 148.35 285.53 155.38 289.58" style="opacity:0.05"></polygon><g id="freepik--Cabinet--inject-4"><g id="freepik--cabinet--inject-4"><polygon points="56.9 353.68 18.59 331.56 18.59 248.64 56.9 270.76 56.9 353.68" style="fill:#e0e0e0"></polygon><polygon points="56.9 270.76 157.37 212.75 157.37 295.67 56.9 353.68 56.9 270.76" style="fill:#ebebeb"></polygon><polygon points="157.37 212.75 56.9 270.76 18.59 248.64 119.06 190.63 157.37 212.75" style="fill:#f5f5f5"></polygon><polygon points="62.37 311.84 151.9 260.15 151.9 290.58 152.9 291.16 63.38 342.85 62.37 342.27 62.37 311.84" style="fill:#e0e0e0"></polygon><polygon points="63.38 312.42 152.9 260.73 152.9 291.16 63.38 342.85 63.38 312.42" style="fill:#f5f5f5"></polygon><path d="M106.42,293.32l7.44-4.3c1-.56,1.75-.3,1.75.57a3.5,3.5,0,0,1-1.75,2.59l-7.44,4.3c-1,.56-1.75.3-1.75-.57A3.5,3.5,0,0,1,106.42,293.32Z" style="fill:#e0e0e0"></path><polygon points="62.37 275.09 151.9 223.41 151.89 253.84 152.9 254.42 63.38 306.11 62.37 305.52 62.37 275.09" style="fill:#e0e0e0"></polygon><polygon points="63.38 275.68 152.9 223.99 152.9 254.42 63.38 306.11 63.38 275.68" style="fill:#f5f5f5"></polygon><path d="M106.42,256.58l7.44-4.3c1-.56,1.75-.31,1.75.57a3.5,3.5,0,0,1-1.75,2.59l-7.44,4.3c-1,.55-1.75.3-1.75-.57A3.48,3.48,0,0,1,106.42,256.58Z" style="fill:#e0e0e0"></path></g></g><g id="freepik--pot--inject-4"><path d="M116.18,215.24c4.65,2.68,4.65,7,0,9.71s-12.17,2.68-16.81,0-4.65-7,0-9.71S111.54,212.56,116.18,215.24Z" style="fill:#e0e0e0"></path><path d="M100.38,220.7c-4-4.13-6.42-14.44-2.48-17.71H118c3.94,3.27,1.57,13.57-2.48,17.7l-.11.12-.14.13-.36.33-.1.07a3.4,3.4,0,0,1-.3.23,5.24,5.24,0,0,1-.53.34,13.3,13.3,0,0,1-12,0h0a6,6,0,0,1-.53-.34l-.29-.21a1.09,1.09,0,0,0-.11-.1,3.65,3.65,0,0,1-.36-.31l-.16-.16Z" style="fill:#ebebeb"></path><path d="M116.23,201.67c4.58,2.65,4.58,6.93,0,9.58s-12,2.64-16.58,0-4.58-6.93,0-9.58S111.65,199,116.23,201.67Z" style="fill:#fafafa"></path><path d="M113,203.55c2.78,1.61,2.78,4.21,0,5.82a11.16,11.16,0,0,1-10.1,0c-2.78-1.61-2.78-4.21,0-5.82A11.14,11.14,0,0,1,113,203.55Z" style="fill:#f5f5f5"></path><path d="M102.9,206.31a11.14,11.14,0,0,1,10.09,0,4.6,4.6,0,0,1,1.66,1.53,4.52,4.52,0,0,1-1.66,1.53,11.14,11.14,0,0,1-10.09,0,4.48,4.48,0,0,1-1.67-1.53A4.56,4.56,0,0,1,102.9,206.31Z" style="fill:#ebebeb"></path><path d="M112.37,207.84A22.64,22.64,0,0,0,116,203c1.69-3,2-7,1.13-7.47s-4.42,3.49-4.42,3.49a21.57,21.57,0,0,0,.37-5.08c-.15-2.66-.79-5.07-1.55-5.56s-2.47,2.87-3.2,5.29-1.16,4.42-1.16,4.42a37.52,37.52,0,0,0-1.31-5.58c-.88-2.52-1.69-3.09-2.31-2.84s-1,1.42-1.21,4.78a32.79,32.79,0,0,0,.15,4.8s-1.25-1.37-2.64-2.71-2.18-1.66-2.61-1.38-.56,2.55,1.8,6.83a24.07,24.07,0,0,0,4.46,5.86S106.79,210,112.37,207.84Z" style="fill:#e0e0e0"></path></g><g id="freepik--picture--inject-4"><g id="freepik--frame--inject-4"><polygon points="54.17 254 55.66 254.72 83.3 238.77 81.81 238.05 54.17 254" style="fill:#fafafa"></polygon><polygon points="81.81 238.05 55.52 253.22 51.7 213.91 77.98 198.74 81.81 238.05" style="fill:#fff"></polygon><path d="M81.6,193.71,48.88,212.6,53.39,259l32.72-18.89Zm1.7,45.06L55.67,254.72l-4-40.81,27.63-16Z" style="fill:#f0f0f0"></path><polygon points="83.3 238.77 81.81 238.05 77.98 198.74 79.33 197.95 83.3 238.77" style="fill:#e0e0e0"></polygon><polygon points="81.6 193.71 80.09 193.01 47.37 211.9 48.88 212.6 81.6 193.71" style="fill:#fafafa"></polygon><polygon points="47.37 211.9 48.88 212.6 53.4 258.97 51.88 258.27 47.37 211.9" style="fill:#e0e0e0"></polygon></g><g id="freepik--land--inject-4"><polygon points="80.65 237.3 56.42 251.29 55.77 244.67 60.28 225.21 64.58 231.85 63.69 237.45 70.85 216.8 80 230.68 80.65 237.3" style="fill:#f0f0f0"></polygon><path d="M59.91,217a3.43,3.43,0,0,0-1.61,3c.11,1.08,1,1.49,2,.92a3.41,3.41,0,0,0,1.6-3C61.78,216.86,60.9,216.45,59.91,217Z" style="fill:#f0f0f0"></path></g></g></g></g><g id="freepik--plant-2--inject-4"><g id="freepik--Plant--inject-4"><g id="freepik--pot--inject-4"><path d="M290.37,360.38h-56l5.79,24.1h0c.44,2.91,2.58,5.74,6.43,8,8.7,5,22.81,5,31.51,0,4.15-2.4,6.3-5.5,6.49-8.64Z" style="fill:#37474f"></path><path d="M283.54,376.9a22.6,22.6,0,0,0,3.36-2.35l3.15-12.87a22.65,22.65,0,0,1-5.66,4.49c-11.8,6.82-30.72,7-42.93.56l1.42-5.74-.43-.61h-8l5.79,24.09h0c.44,2.91,2.58,5.74,6.43,8,6.2,3.58,15.13,4.59,22.91,3.07-13.94,1-23.51-5.05-24.94-10.67-.57-2.24-1.57-7.21-1.57-7.21C254.68,383.55,272.42,383.32,283.54,376.9Z" style="fill:#263238"></path><path d="M293.28,353.25a11.73,11.73,0,0,1-1.87,4.35,20.67,20.67,0,0,1-7,6.23c-12.15,7-31.85,7-44,0a20.67,20.67,0,0,1-7-6.23,11.87,11.87,0,0,1-1.86-4.35h0c-1.08-5.27,1.89-10.77,8.89-14.81,12.14-7,31.84-7,44,0C291.39,342.48,294.36,348,293.28,353.25Z" style="fill:#455a64"></path><path d="M291.41,357.6a20.67,20.67,0,0,1-7,6.23c-12.15,7-31.85,7-44,0a20.67,20.67,0,0,1-7-6.23,11.87,11.87,0,0,1-1.86-4.35h0l1.38,9.48c.63,3.82,3.47,7.54,8.55,10.46,11.57,6.68,30.33,6.68,41.91,0,5-2.89,7.84-6.56,8.52-10.32l.07-.49,1.34-9.13A11.73,11.73,0,0,1,291.41,357.6Z" style="fill:#37474f"></path><path d="M280.73,340.55c-10.13-5.85-26.54-5.85-36.66,0-5.73,3.31-8.21,7.78-7.46,12.09.58,3.32,3.07,6.54,7.46,9.07,10.12,5.85,26.53,5.85,36.66,0,4.38-2.53,6.87-5.75,7.45-9.06C288.94,348.33,286.46,343.86,280.73,340.55Z" style="fill:#263238"></path><path d="M238.32,356.65a17.45,17.45,0,0,0,5.75,5.06c10.12,5.85,26.53,5.85,36.66,0a17.41,17.41,0,0,0,5.74-5.06c-.07-3.5-2.42-7-7-9.66-9.41-5.43-24.66-5.43-34.06,0C240.74,349.67,238.4,353.15,238.32,356.65Z" style="fill:#fafafa"></path></g><path d="M264.33,345.77c-4.65-1.26-5.44-11.34-2.83-22,2.53-10.35,10.65-25.86,12.38-25.52s3.87,17.2,2.66,28.34C275.07,340.11,269,347,264.33,345.77Z" style="fill:#5487F9"></path><path d="M264.33,345.77c-4.65-1.26-5.44-11.34-2.83-22,2.53-10.35,10.65-25.86,12.38-25.52s3.87,17.2,2.66,28.34C275.07,340.11,269,347,264.33,345.77Z" style="opacity:0.30000000000000004"></path><path d="M266.6,313.19c.83,1.32,1.35,3.55,3.3,3.56,1.57,0,2.39-1.65,3.8-2a3.82,3.82,0,0,1,3.13.93l-.06-1.21a4.72,4.72,0,0,0-2.69-.95,3.88,3.88,0,0,0-2.26,1c-.72.56-1.61,1.41-2.61,1s-1.45-1.89-2-2.84a3.68,3.68,0,0,0-1.24-1.27c-.13.28-.25.57-.38.86A2.65,2.65,0,0,1,266.6,313.19Zm5.52-4.16c.67-.31,1.05-1,1.57-1.48a2.26,2.26,0,0,1,2.39-.46l.09,0c-.05-.36-.09-.71-.14-1.05a2.18,2.18,0,0,0-.44-.11,2.69,2.69,0,0,0-1.95.42c-.64.46-1,1.25-1.67,1.66-1.22.73-2.19-.6-2.55-1.59-.16-.45-.29-.91-.44-1.36l-.37.71c.08.32.16.64.26.95C269.28,308.07,270.52,309.79,272.12,309ZM272,322.49a11.15,11.15,0,0,1-2.54,1.67c-2.4.68-2.95-3-4.47-4.11a3.19,3.19,0,0,0-2.18-.57c-.1.28-.19.57-.28.85a3,3,0,0,1,1.22,0,3.31,3.31,0,0,1,2.1,1.86c.76,1.37,1.74,3.34,3.65,3a6.08,6.08,0,0,0,2.23-1.25,4,4,0,0,1,3.24-.88,4.37,4.37,0,0,1,1.83,1l.06-1.09a4.61,4.61,0,0,0-2.22-1A4.15,4.15,0,0,0,272,322.49Zm1.46,8.13a4.71,4.71,0,0,0-3.17.42c-1.11.55-1.91,1.62-3.07,2.06-2.54,1-2.93-2.71-4.78-3.61a3.73,3.73,0,0,0-1.92-.37l-.12.86a3.55,3.55,0,0,1,.73,0,3.4,3.4,0,0,1,2.62,2c.9,1.67,2.07,3,4.12,2,1.1-.53,1.88-1.53,3-2a3.58,3.58,0,0,1,3.78.34,5.51,5.51,0,0,1,.71.88c.1-.36.18-.74.27-1.11A4.08,4.08,0,0,0,273.42,330.62Z" style="fill:#5487F9;opacity:0.5"></path><path d="M264.33,345.77c4.66,1.26,10.74-5.66,12.21-19.15a79.8,79.8,0,0,0,.26-11.57c-3.8,3.12-7.61,9.49-7.61,9.49a103,103,0,0,0-4.52-10.18,70.78,70.78,0,0,0-3.17,9.44C258.89,334.43,259.68,344.51,264.33,345.77Z" style="opacity:0.1"></path><path d="M260.54,351.36c-6.12,3.93-11.83-10-14.87-20.59s-1-38.1,2-39.61c2.18-1.07,13.74,23.63,16,35.66C265.36,335.51,265.41,348.24,260.54,351.36Z" style="fill:#5487F9"></path><path d="M260.54,351.36c-6.12,3.93-11.83-10-14.87-20.59s-1-38.1,2-39.61c2.18-1.07,13.74,23.63,16,35.66C265.36,335.51,265.41,348.24,260.54,351.36Z" style="opacity:0.1"></path><path d="M247.34,310.62c1.92.95,3.45,1,4.94-.67s2.43-3.4,4.6-3.16c-.21-.48-.42-1-.64-1.44a3.14,3.14,0,0,0-1.05.11c-1.9.5-2.75,2.48-4.09,3.73-2,1.92-4.24-.61-6.56-.46l-.21,0-.06,1.27A6,6,0,0,1,247.34,310.62Zm16.82,19a6.88,6.88,0,0,0-1-.29,3.72,3.72,0,0,0-2.89.65c-1.85,1.36-1.94,4.38-4.93,3.59-2.28-.6-4-2.1-6.38-.9a8.55,8.55,0,0,0-2.2,1.66c.12.35.23.69.35,1.05a6.66,6.66,0,0,1,3-1.85c2.58-.67,4.52,1.94,7.09,1.51,2.09-.34,2.32-2.64,3.77-3.77a3.26,3.26,0,0,1,3.39-.22C264.28,330.54,264.22,330.06,264.16,329.59Zm-16.72-29c.72,1,1.72,2.07,3.05,1.39s1.53-2.46,2.44-3.58l-.49-.95c-.89,1.19-1.33,3.77-3,3.67-1.33-.07-1.85-2-3-2.61a2,2,0,0,0-1.11-.21c0,.27-.08.53-.12.81l.26,0C246.41,299.15,247,299.94,247.44,300.62Zm4.61,20.92c2.42.52,3.6-2.36,4.69-4a7.19,7.19,0,0,1,3.35-2.84c-.16-.43-.32-.86-.49-1.3a4.75,4.75,0,0,0-1.26.47,8.22,8.22,0,0,0-2.62,2.66c-.73,1.09-1.33,2.55-2.46,3.28-1.29.84-2.81-.47-4.15-.72a7.24,7.24,0,0,0-3.72.3,6.21,6.21,0,0,0-1.13.55q0,.9.09,1.77a5.71,5.71,0,0,1,3.92-1.32C249.69,320.47,250.73,321.25,252.05,321.54Z" style="fill:#5487F9"></path><path d="M260.5,315.87a34.53,34.53,0,0,0-5,8.12s-6.64-9-11.31-13.1c-.25,7.49.12,15.3,1.44,19.88,3,10.55,8.75,24.52,14.87,20.59,4.87-3.12,4.82-15.85,3.17-24.54A75,75,0,0,0,260.5,315.87Z" style="opacity:0.1"></path><path d="M260.12,358.54c-11.19.61-21.65-6.17-28.43-14.71s-12.08-26.19-10.54-27.27,19.58,10,26.36,18.08C256.4,345.17,260.12,358.54,260.12,358.54Z" style="fill:#5487F9"></path><path d="M260.12,358.54c-11.19.61-21.65-6.17-28.43-14.71s-12.08-26.19-10.54-27.27,19.58,10,26.36,18.08C256.4,345.17,260.12,358.54,260.12,358.54Z" style="opacity:0.2"></path><path d="M235.7,330.51c.65-1.05.28-2.32.14-3.46a3.16,3.16,0,0,1,.45-2.17L235,324a4.47,4.47,0,0,0-.46,3c.18,1.29.49,2.9-1.23,3.14-1.89.25-4.49-1.43-6,.43-.73.91-.45,2.06-.48,3.12a3,3,0,0,1-.4,1.36c.2.42.41.85.62,1.26a3.72,3.72,0,0,0,.83-1.89c.16-1.3-.35-3,1.41-3.26,1.21-.19,2.38.37,3.58.45A2.84,2.84,0,0,0,235.7,330.51Zm-6.25-9.34a2.3,2.3,0,0,1,.5-.53l-1-.62c-.82,1.08-.82,2.56-1.65,3.64a1.89,1.89,0,0,1-2.11.6,3.51,3.51,0,0,0-2.33.08,2.73,2.73,0,0,0-.47.27c.08.26.17.53.25.81a2.45,2.45,0,0,1,1.18-.33c.84,0,1.63.42,2.49.36a2.17,2.17,0,0,0,1.48-.76C228.7,323.69,228.74,322.28,229.45,321.17Zm12.4,15a5.5,5.5,0,0,0,1.7-2.88,18.86,18.86,0,0,0,.29-2.38l-1.06-.94c-.23,1.31-.1,2.63-.78,3.87a3.51,3.51,0,0,1-3.48,1.82,3.67,3.67,0,0,0-3,1,5.58,5.58,0,0,0-1.11,3c-.23,1.56-.47,3-1.92,3.88a4.87,4.87,0,0,1-.77.36c.26.33.54.65.81,1a4.5,4.5,0,0,0,1.61-1.19c1.87-2.22.35-6.63,4.33-6.63A4.84,4.84,0,0,0,241.85,336.17Zm6,1.12a5.69,5.69,0,0,1,.84-1.17c-.32-.4-.64-.81-1-1.2a7.28,7.28,0,0,0-1.79,3.51,10.35,10.35,0,0,1-1.46,4.17c-1,1.25-2.52,1.12-3.81,1.84a5.4,5.4,0,0,0-2.38,2.78,13,13,0,0,0-.6,2.83l1.18,1,0-.17c.26-1.59.44-3.21,1.68-4.37s2.81-1,4.07-1.84C247.07,342.94,246.65,339.67,247.87,337.29Zm4.85,4.67a7.93,7.93,0,0,0-.91.83c-1.91,2.1-1.67,4.82-2.37,7.39a4.52,4.52,0,0,1-2.38,3.19c-1.07.44-2.27,0-3.2.86a.81.81,0,0,0-.09.1c.55.32,1.11.61,1.67.9a4.83,4.83,0,0,1,.94-.11,4.24,4.24,0,0,0,1.74-.42,5,5,0,0,0,2.13-2.32c1.16-2.4.64-5.33,2.09-7.61a5.88,5.88,0,0,1,1.21-1.4C253.28,342.9,253,342.43,252.72,342Z" style="fill:#5487F9"></path><path d="M234.92,323.92c1.05,9.26,6,34.19,25.2,34.62,0,0-3.72-13.37-12.61-23.9C244.64,331.23,239.73,327.27,234.92,323.92Z" style="opacity:0.2"></path><path d="M260.12,358.54c-8.8-1.28-16.35-6.85-20.23-23.43s-4.48-24.07-1.81-25.72c3.07-1.89,15.08,14.82,18.95,22.17C266.74,350,260.12,358.54,260.12,358.54Z" style="fill:#5487F9"></path><path d="M243.79,327.91c2.19.68,5.05,1.42,6.7-.75.8-1.06,1-2.49,1.58-3.61l-1.18-1.7c-1,1.57-.94,3.87-2.64,4.77-1.27.67-2.79.23-4.07-.16a9.68,9.68,0,0,0-4.05-.61,5.77,5.77,0,0,0-2.11.74c.1.49.21,1,.31,1.51a7.85,7.85,0,0,1,.88-.42A6.75,6.75,0,0,1,243.79,327.91Zm-2.6-8.59a3.5,3.5,0,0,0,2.05.39c1.33-.27,2-1.56,2.71-2.61a5.8,5.8,0,0,1,.68-.87l-.83-1-.17.17c-.83,1-1.53,3.07-3.08,3.09a9.61,9.61,0,0,1-2.19-.64,5.28,5.28,0,0,0-1.9,0,4.72,4.72,0,0,0-1.76.68c0,.38.09.78.15,1.18a5.17,5.17,0,0,1,2.36-.72A4.81,4.81,0,0,1,241.19,319.32Zm9.61,18.42c.84-1.23,1.45-2.62,2.69-3.51a5.86,5.86,0,0,1,4.48-.79c-.29-.62-.61-1.24-.94-1.87a7.31,7.31,0,0,0-3,.19,6.41,6.41,0,0,0-3.36,2.45,18.81,18.81,0,0,1-2.25,3.25c-1.79,1.64-4.21.21-6.22-.19a7.39,7.39,0,0,0-1.75-.14c.15.58.31,1.15.48,1.7a7.46,7.46,0,0,1,2.31.35C246.19,340.11,248.8,340.66,250.8,337.74ZM260.93,341c-.14.05-.29.07-.44.13a6.82,6.82,0,0,0-3,2.24c-.85,1.1-1.31,2.44-2.11,3.57a2.75,2.75,0,0,1-3.5,1.16,6.07,6.07,0,0,0-3.87-.28,6.35,6.35,0,0,0-2.45,1.53c.29.45.6.86.91,1.27a5.35,5.35,0,0,1,1.9-1.1,4.27,4.27,0,0,1,3,.37,4.74,4.74,0,0,0,6.23-1.89c.75-1.1,1.19-2.41,2-3.45a4.9,4.9,0,0,1,1.82-1.39C261.34,342.42,261.15,341.71,260.93,341Z" style="fill:#fff;opacity:0.2"></path><path d="M257,331.56c-.7-1.33-1.67-3-2.8-4.75-3.81,11.77-5,28.94,5.89,31.73C260.12,358.54,266.74,350,257,331.56Z" style="opacity:0.15"></path><path d="M264.67,358.54c11.19.61,21.65-6.17,28.43-14.71s12.08-26.19,10.55-27.27-19.59,10-26.37,18.08C268.39,345.17,264.67,358.54,264.67,358.54Z" style="fill:#5487F9"></path><path d="M264.67,358.54c11.19.61,21.65-6.17,28.43-14.71s12.08-26.19,10.55-27.27-19.59,10-26.37,18.08C268.39,345.17,264.67,358.54,264.67,358.54Z" style="opacity:0.2"></path><path d="M291.89,331.63c1.2-.08,2.37-.64,3.58-.45,1.76.28,1.25,2,1.41,3.26a3.72,3.72,0,0,0,.83,1.89c.21-.41.42-.84.62-1.26a3,3,0,0,1-.4-1.36c0-1.06.25-2.21-.48-3.12-1.51-1.86-4.11-.18-6-.43-1.73-.24-1.42-1.85-1.24-3.14a4.53,4.53,0,0,0-.45-3l-1.27.89a3.22,3.22,0,0,1,.46,2.17c-.15,1.14-.52,2.41.13,3.46A2.84,2.84,0,0,0,291.89,331.63Zm5.12-6.94a2.17,2.17,0,0,0,1.49.76c.85.06,1.64-.38,2.48-.36a2.42,2.42,0,0,1,1.18.33c.09-.28.17-.55.25-.81a2.64,2.64,0,0,0-.46-.27,3.54,3.54,0,0,0-2.34-.08,1.9,1.9,0,0,1-2.11-.6c-.83-1.08-.83-2.56-1.65-3.64l-1,.62a2.3,2.3,0,0,1,.5.53C296.05,322.28,296.09,323.69,297,324.69ZM286.32,337c4,0,2.46,4.41,4.34,6.63a4.39,4.39,0,0,0,1.6,1.19c.27-.32.55-.64.81-1a4.87,4.87,0,0,1-.77-.36c-1.45-.88-1.69-2.32-1.91-3.88a5.68,5.68,0,0,0-1.12-3,3.65,3.65,0,0,0-3-1,3.52,3.52,0,0,1-3.49-1.82c-.67-1.24-.55-2.56-.78-3.87l-1.06.94a18.86,18.86,0,0,0,.29,2.38,5.63,5.63,0,0,0,1.7,2.88A4.84,4.84,0,0,0,286.32,337Zm-6.19,7.63c1.26.89,2.89.72,4.07,1.84s1.43,2.78,1.68,4.37l0,.17,1.18-1a13.56,13.56,0,0,0-.59-2.83,5.42,5.42,0,0,0-2.39-2.78c-1.29-.72-2.84-.59-3.81-1.84s-1.11-2.74-1.46-4.17a7.19,7.19,0,0,0-1.79-3.51c-.33.39-.65.8-1,1.2a5.34,5.34,0,0,1,.84,1.17C278.14,339.67,277.72,342.94,280.13,344.64Zm-8.89-1.27a6.15,6.15,0,0,1,1.22,1.4c1.44,2.28.93,5.21,2.09,7.61a4.93,4.93,0,0,0,2.12,2.32,4.24,4.24,0,0,0,1.74.42,4.83,4.83,0,0,1,.94.11c.56-.29,1.12-.58,1.67-.9a.81.81,0,0,0-.09-.1c-.92-.84-2.13-.42-3.2-.86a4.52,4.52,0,0,1-2.38-3.19c-.7-2.57-.46-5.29-2.37-7.39a7.17,7.17,0,0,0-.91-.83C271.79,342.43,271.51,342.9,271.24,343.37Z" style="fill:#5487F9"></path><path d="M289.87,323.92c-1.05,9.26-6,34.19-25.2,34.62,0,0,3.72-13.37,12.61-23.9C280.16,331.23,285.06,327.27,289.87,323.92Z" style="opacity:0.2"></path><path d="M264.67,358.54c8.8-1.28,16.35-6.85,20.24-23.43s4.47-24.07,1.8-25.72c-3.07-1.89-15.08,14.82-18.95,22.17C258.06,350,264.67,358.54,264.67,358.54Z" style="fill:#5487F9"></path><path d="M285.58,327.68a7.85,7.85,0,0,1,.88.42c.1-.51.21-1,.31-1.51a5.77,5.77,0,0,0-2.11-.74,9.64,9.64,0,0,0-4,.61c-1.29.39-2.8.83-4.08.16-1.7-.9-1.67-3.2-2.64-4.77l-1.18,1.7c.56,1.12.78,2.55,1.59,3.61,1.64,2.17,4.5,1.43,6.69.75A6.75,6.75,0,0,1,285.58,327.68Zm0-8.73a5.17,5.17,0,0,1,2.36.72c.06-.4.11-.8.15-1.18a4.72,4.72,0,0,0-1.76-.68,5.22,5.22,0,0,0-1.89,0,9.84,9.84,0,0,1-2.2.64c-1.55,0-2.25-2.08-3.08-3.09l-.17-.17-.83,1a5.22,5.22,0,0,1,.68.87c.68,1,1.38,2.34,2.71,2.61a3.49,3.49,0,0,0,2.05-.39A4.81,4.81,0,0,1,285.58,319Zm-4,20.23a7.48,7.48,0,0,1,2.32-.35c.16-.55.32-1.12.47-1.7a7.39,7.39,0,0,0-1.75.14c-2,.4-4.43,1.83-6.22.19a19.38,19.38,0,0,1-2.25-3.25,6.37,6.37,0,0,0-3.36-2.45,7.3,7.3,0,0,0-3-.19c-.33.63-.64,1.25-.94,1.87a5.89,5.89,0,0,1,4.49.79c1.24.89,1.84,2.28,2.68,3.51C276,340.66,278.6,340.11,281.59,339.18Zm-18.3,3.94a4.82,4.82,0,0,1,1.82,1.39c.85,1,1.28,2.35,2,3.45a4.73,4.73,0,0,0,6.22,1.89,4.29,4.29,0,0,1,3-.37,5.3,5.3,0,0,1,1.89,1.1c.31-.41.62-.82.92-1.27a6.35,6.35,0,0,0-2.45-1.53,6.06,6.06,0,0,0-3.87.28,2.77,2.77,0,0,1-3.51-1.16c-.8-1.13-1.25-2.47-2.11-3.57a6.82,6.82,0,0,0-3-2.24c-.15-.06-.29-.08-.44-.13C263.64,341.71,263.45,342.42,263.29,343.12Z" style="fill:#fff;opacity:0.2"></path><path d="M267.76,331.56c.7-1.33,1.67-3,2.8-4.75,3.81,11.77,5,28.94-5.89,31.73C264.67,358.54,258.06,350,267.76,331.56Z" style="opacity:0.15"></path><path d="M262.4,360.37c7.42,0,9.89-10.11,9.15-18.24s-5.89-23.6-9.15-23.6S254,334,253.25,342.13,255,360.37,262.4,360.37Z" style="fill:#5487F9"></path><path d="M262.4,360.37c7.42,0,9.89-10.11,9.15-18.24s-5.89-23.6-9.15-23.6S254,334,253.25,342.13,255,360.37,262.4,360.37Z" style="fill:#fff;opacity:0.30000000000000004"></path><path d="M262.35,329.11a6.13,6.13,0,0,0,2.77-2,4.78,4.78,0,0,1,2.29-1.19c-.19-.48-.38-.95-.58-1.4a7,7,0,0,0-3.13,1.93,4.42,4.42,0,0,1-1.55,1.16c-.9.31-1.45-.17-2-.76a4.87,4.87,0,0,0-2.44-1.46h-.07c-.16.38-.31.78-.46,1.17a4.65,4.65,0,0,1,2.59,1.46A2.77,2.77,0,0,0,262.35,329.11ZM256.81,338c2.48,1.94,4.52-.81,6.1-2.45,1.32-1.37,2.72-1.64,4.22-.38a10,10,0,0,0,2.83,2.05,5.54,5.54,0,0,0,.85.21c-.09-.47-.19-.93-.3-1.41a8.41,8.41,0,0,1-3-2c-2.21-1.81-4.2-1-5.95,1-1,1.16-2.64,3.15-4.3,1.9-1-.73-1.44-2-2.46-2.68l0,0c-.11.41-.21.81-.3,1.22C255.4,336.06,255.89,337.3,256.81,338Zm2.78,8.9c1.4,1.85,3.15,2.31,5.05.72a34.22,34.22,0,0,1,2.54-2.57c1.41-.95,3-.45,4.49.12,0-.45,0-.88,0-1.32a10.5,10.5,0,0,0-2.06-.65,4.2,4.2,0,0,0-3.2.65c-1.05.75-1.69,1.91-2.71,2.7-.55.42-1.42.95-2.14.68s-1.36-1.37-2-2a6.13,6.13,0,0,0-2.87-1.64,5.3,5.3,0,0,0-3.55.35c0,.42,0,.84,0,1.27A5.24,5.24,0,0,1,259.59,346.92Zm7,7.56a5.88,5.88,0,0,1-4.19,1.26,3.37,3.37,0,0,1-2.11-.92c-.41-.42-.71-.94-1.13-1.36a4.89,4.89,0,0,0-2.79-1.39,5.55,5.55,0,0,0-2.33.2c.13.46.27.9.43,1.33a3.9,3.9,0,0,1,3.7.51c.89.66,1.31,1.75,2.26,2.37a5.23,5.23,0,0,0,2.89.75,6.71,6.71,0,0,0,3.08-.76c1.07-.56,1.83-1.53,2.86-2.13a5.54,5.54,0,0,1,.86-.39,17.38,17.38,0,0,0,.55-1.68,5.24,5.24,0,0,0-1,.22A10.51,10.51,0,0,0,266.63,354.48Z" style="fill:#fff;opacity:0.2"></path></g></g><g id="freepik--plants-1--inject-4"><g id="freepik--Plants--inject-4"><path d="M101.15,425a.54.54,0,0,1-.27-.36c-4.18-21.23-24-34.85-32.49-40.67-1.37-.94-2.45-1.68-3.15-2.24a10.54,10.54,0,0,1-4.33-9.45,9.09,9.09,0,0,1,5.68-7.1c7.85-3.49,21.65,5.27,31.41,19.94,13.67,20.56,10,37.15,9.92,37.32a.55.55,0,0,1-.33.38l-6,2.22-.21,0A.62.62,0,0,1,101.15,425Zm-4-39.28C87.63,371.49,74.42,362.9,67,366.18a8,8,0,0,0-5,6.25,9.5,9.5,0,0,0,3.93,8.48c.67.54,1.74,1.27,3.09,2.2,8.5,5.83,28.29,19.43,32.82,40.73l5.13-1.9C107.35,419.72,109.54,404.44,97.11,385.74Z" style="fill:#5487F9"></path><path d="M104.79,423.83h.07a.54.54,0,0,0,.49-.57c-2.13-25.08-21.95-47.41-34.12-51.17a.53.53,0,0,0-.67.36.54.54,0,0,0,.35.67c12,3.71,31.35,26.45,33.37,50.23A.54.54,0,0,0,104.79,423.83Z" style="fill:#5487F9"></path><path d="M107.38,422.87a.66.66,0,0,0,.23,0l4-1.7a.52.52,0,0,0,.31-.38c0-.25,5-24.92-3.81-56.58C103.7,348.05,92.48,333,81.48,328.46c-5.29-2.19-10.24-2-14.73.51-2.54,1.43-4,3.3-4.42,5.57-1.1,6.28,6.17,14.7,13.86,23.61,5.38,6.24,11,12.68,13.79,18.59a.54.54,0,0,0,.72.25.55.55,0,0,0,.25-.71c-2.91-6-8.52-12.54-14-18.83-7.52-8.72-14.63-16.95-13.62-22.72.34-2,1.62-3.55,3.89-4.83,4.19-2.36,8.83-2.52,13.8-.45,10.72,4.45,21.68,19.18,26.06,35,8.19,29.61,4.35,53,3.85,55.8l-3.78,1.58a.54.54,0,0,0,.18,1Z" style="fill:#5487F9"></path><path d="M106.84,407.53h0a.54.54,0,0,0,.52-.55c-.85-39-25.66-67.81-32.6-72.47a.53.53,0,0,0-.6.88c6.84,4.6,31.29,33,32.13,71.62A.53.53,0,0,0,106.84,407.53Z" style="fill:#5487F9"></path></g><g id="freepik--plants--inject-4"><path d="M401.53,423.09l-.21,0-6-2.22a.55.55,0,0,1-.33-.38c0-.17-3.75-16.76,9.92-37.32,9.76-14.67,23.56-23.43,31.42-19.94a9.1,9.1,0,0,1,5.67,7.1,10.56,10.56,0,0,1-4.32,9.45c-.71.56-1.79,1.3-3.16,2.24-8.47,5.82-28.31,19.44-32.49,40.67a.56.56,0,0,1-.26.36A.73.73,0,0,1,401.53,423.09ZM396,419.94l5.14,1.9c4.52-21.3,24.31-34.9,32.81-40.73,1.35-.93,2.42-1.66,3.09-2.2a9.5,9.5,0,0,0,3.93-8.48,8,8,0,0,0-5.05-6.25c-7.39-3.28-20.61,5.31-30.09,19.56C393.37,402.44,395.57,417.72,396,419.94Z" style="fill:#5487F9"></path><path d="M398.12,421.83h-.07a.54.54,0,0,1-.49-.57c2.14-25.08,21.95-47.41,34.12-51.17a.53.53,0,0,1,.67.36.54.54,0,0,1-.35.67c-12,3.71-31.35,26.45-33.37,50.23A.54.54,0,0,1,398.12,421.83Z" style="fill:#5487F9"></path><path d="M395.53,420.87a.66.66,0,0,1-.23,0l-4-1.7a.51.51,0,0,1-.32-.38c-.05-.25-4.95-24.92,3.81-56.58,4.46-16.12,15.68-31.14,26.68-35.71,5.29-2.19,10.24-2,14.73.51,2.54,1.43,4,3.3,4.42,5.57,1.1,6.28-6.17,14.7-13.86,23.61-5.38,6.24-11,12.68-13.79,18.59a.53.53,0,1,1-1-.46c2.9-6,8.51-12.54,13.94-18.83,7.52-8.72,14.63-16.95,13.62-22.72-.34-2-1.62-3.55-3.89-4.83-4.19-2.36-8.83-2.52-13.8-.45-10.72,4.45-21.68,19.18-26.06,35-8.19,29.61-4.35,53-3.85,55.8l3.78,1.58a.52.52,0,0,1,.29.7A.53.53,0,0,1,395.53,420.87Z" style="fill:#5487F9"></path><path d="M396.07,405.53h0a.54.54,0,0,1-.52-.55c.86-39,25.66-67.81,32.6-72.47a.53.53,0,1,1,.6.88c-6.84,4.6-31.28,33-32.13,71.62A.53.53,0,0,1,396.07,405.53Z" style="fill:#5487F9"></path></g></g><g id="freepik--character-2--inject-4"><g id="freepik--Mirror--inject-4"><path d="M421,436.15a10.51,10.51,0,0,1-5.21-1.63l-66.84-38.59c-5.85-3.38-11.51-11.21-12.89-17.83L296.57,187.9a2.21,2.21,0,0,1,4.33-.91l39.45,190.2c1.11,5.35,6,12.18,10.78,14.91L418,430.69c1.88,1.08,3.22,1.21,3.72.86s.8-1.67.36-3.81l-39-189.91a2.21,2.21,0,0,1,4.33-.89l39,189.91c1.06,5.13-.86,7.39-2.1,8.29A5.64,5.64,0,0,1,421,436.15Z" style="fill:#455a64"></path><polygon points="276.77 406 375.66 463.09 393.64 151.67 294.75 94.58 276.77 406" style="fill:#5487F9"></polygon><polygon points="276.77 406 375.66 463.09 393.64 151.67 294.75 94.58 276.77 406" style="fill:#fff;opacity:0.45"></polygon><polygon points="398.2 149.04 393.64 151.67 375.66 463.09 380.23 460.45 398.2 149.04" style="fill:#5487F9"></polygon><polygon points="280.78 336.52 379.67 393.62 397.65 82.2 298.76 25.11 280.78 336.52" style="fill:#5487F9"></polygon><polygon points="287.64 332.81 304.79 36.25 390.79 85.91 373.64 382.47 287.64 332.81" style="fill:#fafafa"></polygon><polygon points="402.21 79.56 397.65 82.2 379.67 393.62 384.24 390.98 402.21 79.56" style="fill:#5487F9"></polygon><polygon points="402.21 79.56 397.65 82.2 379.67 393.62 384.24 390.98 402.21 79.56" style="opacity:0.2"></polygon><polygon points="303.33 22.47 298.76 25.11 397.65 82.2 402.21 79.56 303.33 22.47" style="fill:#5487F9"></polygon><polygon points="303.33 22.47 298.76 25.11 397.65 82.2 402.21 79.56 303.33 22.47" style="fill:#fff;opacity:0.2"></polygon><g style="opacity:0.55"><g id="freepik--Character--inject-4"><g id="freepik--Bottom--inject-4"><path d="M370.82,343.87l-1.41,24.45-.33,5.69L365,371.66l-3.93-2.27L349.92,363c-1.65-9.07-3.1-17.07-3.1-17.07l6.18-.61.83-.08h0Z" style="fill:#b16668"></path><path d="M371.24,241.85c-1.47,34.08-2.51,49.47-2.14,53.27.21,2.13,1.62,6.58,2.31,10.94s.92,11.81.92,11.81l-1.51,26-1.41,24.45a21.23,21.23,0,0,1-8.32,1.07L349.92,363l-.6-.35c-1.83-10.33-6.21-34.92-8-43.78-2.69-12.94-7.76-49.59-7.76-49.59l-7.43,26.39a71.21,71.21,0,0,1-.86,23.87c-1.87,8.4-4.13,18.27-5.87,25.83l-19.16-11.07-.59-.34-4-2.31c-.11-14.25-.18-32.25-.11-42.44,0-2,.06-4.28.1-6.76l4.08-70.63h0c.65-6,1.38-11.83,2.23-17.19h0l57.81,1.55C365.76,204.68,372.39,215.18,371.24,241.85Z" style="fill:#37474f"></path><path d="M304,222.83c3.31,7.51,13.87,12.22,18.43,13L331,269l-4.92,26.63,7.43-26.39-9.66-39.54S311.36,229.62,304,222.83Z" style="fill:#263238"></path><path d="M342.87,265.62c-1.28-9.78-2.55-19.57-4-29.34.64,9.85,1.4,19.69,2.42,29.52s2.8,31.36,7.75,58.67c1.75,9.71,4.41,24.14,6.71,33.75-1.54-9.75-3.49-24.33-5.19-34.05C345.55,295.39,344.18,275.39,342.87,265.62Z" style="fill:#263238"></path><path d="M305.85,238.83l-2.94,25.61c-.46,4.26-1,8.53-1.37,12.8s-.89,8.55-1,12.77-.09,8.57-.1,12.85v12.89q0,9.25-.18,18.5l-.59-.34q-.51-9.06-.79-18.14c-.26-8.6-.47-17.16-.32-25.83.48-8.67,1.66-17.17,2.87-25.71S304.09,247.25,305.85,238.83Z" style="fill:#263238"></path></g><g id="freepik--Top--inject-4"><path d="M327.06,133.53,322.19,158s-.43.35-1.17,1h0l-2.28,1.87c-3.76,3.07-9.92,8.09-15.08,12.15-.5.39-1.32,1-1.79,1.37l.4-7,.91-15.7.77-13.36a19.64,19.64,0,0,1,10.22-5.6C318.44,132,321.84,133.47,327.06,133.53Z" style="fill:#e0e0e0"></path><path d="M303.6,198.82c-2.71-3.12-1.72-8,.33-12.49.44-7,.35-13.59.35-13.59l53.2,9.76c-1.89,7.48-1.58,6.23,2.29,13.63C348.15,211.13,308.77,206.81,303.6,198.82Z" style="fill:#b16668"></path><path d="M365.84,162.54c-.92,2-1.87,4.18-2.81,6.5h0c-.5,1.23-1,2.5-1.46,3.77-.21.57-.43,1.15-.63,1.71h0A98.67,98.67,0,0,0,357,187.85a7.23,7.23,0,0,1-.66.4c-.17.11-.37.21-.55.31-12.55,6.64-44.65,5.09-51.81-3.34q-.18-.21-.33-.42c-.43-2.07-.37-7.53,0-11.84.1-1.16.21-2.23.35-3.13-.43-.68-1.34-1.69-1.74-2.49l.91-15.7c2-3,5.88-6.1,11.07-10.15a80.21,80.21,0,0,1,12.82-8l6.78-.24,6.15-.22,12.58,1.38s1.25.44,5.58,2.21c1.28.53,2.78,1.1,4.23,1.72h0a29.17,29.17,0,0,1,3.67,1.81C368.45,141.63,370,153.62,365.84,162.54Z" style="fill:#455a64"></path><path d="M317.39,171.16c3.07,4.46,15.68,11.36,25.73,4.63C339.82,184.71,319.37,182.91,317.39,171.16Z" style="fill:#37474f"></path><g id="freepik--Head--inject-4"><path d="M323.39,97.6a5.47,5.47,0,0,1-3.17,1.33c-1.18.09-2.54-.17-3.43.62a1.81,1.81,0,0,0,.65,3.08,3.72,3.72,0,0,1-2.66-6,23.39,23.39,0,0,0,1.66-1.81,2.85,2.85,0,0,0,.29-2.38c-.4-1.2-1.23-1.78-1.7-3a5.82,5.82,0,0,1-.46-2.87A6.69,6.69,0,0,1,316,83.35c1.69-1.95,5.26-2.71,7.71-2.9-.42-1.64-.21-4.53,3.34-6.83a8.81,8.81,0,0,1,9.44.29,5.46,5.46,0,0,1,3.67-4.58,11.1,11.1,0,0,1,6.13-.2c3.28.65,6.79,2.38,7.73,5.59a10.16,10.16,0,0,1,10.3,3.49A9.41,9.41,0,0,1,364.5,89c6.61,4.14,6.71,12.81,4.44,18.72-1.95,5.1-5.72,7-10.15,11.62-.84.89-5,4.93-5.19,6.15Z" style="fill:#263238"></path><path d="M334.73,83.17c14-2.64,27.72,9.65,27.54,25.67,2-9.56.57-15.29-4.28-20.56C350.21,79.82,339.53,80.11,334.73,83.17Z" style="fill:#5487F9"></path><path d="M328,88.73s-5.17,4-6.44,20c-.92,11.51,1,16,4.37,18,2,1.24,4.68,1.83,8.29,2.11l-.4,5.05s-12.62,11-3.43,13.2c4.89,1.16,10-.81,14.53-3a20.06,20.06,0,0,0,7.42-7.11l1.47-13.84s3,2.87,7.07,0c3.66-2.56,4.83-7.44,2.83-10.59s-5.87-2.86-8.48.46c0,0-3.83.91-2.83-4,0,0-2.75-1.43-3.68-6.52-.48-2.6,2.46-7.48.63-9.55-2.85-2.4-8.69.66-14,.26C332.6,93.06,329.9,89.32,328,88.73Z" style="fill:#b16668"></path><path d="M338.34,115.18,333,117.82a2.94,2.94,0,0,0,4,1.48A3.15,3.15,0,0,0,338.34,115.18Z" style="fill:#9a4a4d"></path><path d="M337.94,116.74a2.55,2.55,0,0,0-2.39,2.69s0,.1,0,.15a3,3,0,0,0,1.36-.28,3,3,0,0,0,1.67-2.5A2.85,2.85,0,0,0,337.94,116.74Z" style="fill:#f28f8f"></path><path d="M325.34,100.3l4-1.23a2,2,0,0,0-2.52-1.4A2.17,2.17,0,0,0,325.34,100.3Z" style="fill:#263238"></path><path d="M340.79,99.07l4.08,3.31a2.52,2.52,0,0,0-.29-3.65A2.75,2.75,0,0,0,340.79,99.07Z" style="fill:#263238"></path><polygon points="335.03 102.56 332.18 114.38 326.3 110.64 335.03 102.56" style="fill:#9a4a4d"></polygon><path d="M334.19,128.88c9.47,0,14.22-1.82,16.3-4.95,0,0-1.26,4.22-4.47,5.56a29.23,29.23,0,0,1-12,1.8Z" style="fill:#9a4a4d"></path><path d="M328.66,103.83a1.91,1.91,0,0,1-1.88,1.86,1.79,1.79,0,0,1-1.83-1.81,1.91,1.91,0,0,1,1.89-1.86A1.78,1.78,0,0,1,328.66,103.83Z" style="fill:#263238"></path><path d="M342.17,107.37c-.13,1-.89-.73-2.1-1.13s-2.75.59-2.28-.34a2.08,2.08,0,0,1,2.7-.92A2.24,2.24,0,0,1,342.17,107.37Z" style="fill:#263238"></path><path d="M338.31,104.43a1.34,1.34,0,0,1,.52-.48,3,3,0,0,1,1.07-.47,3.41,3.41,0,0,1,1-.12,2.31,2.31,0,0,1,1.26.51,3.12,3.12,0,0,1,.53.56,1.07,1.07,0,0,1,.3.77s0,.07-.07,0-.14,0-.22-.07a2.61,2.61,0,0,1-.25-.23,2.22,2.22,0,0,0-.46-.29,3.41,3.41,0,0,0-1.19-.36,3.51,3.51,0,0,0-1.76.22c-.16.07-.62.38-.77.2a.19.19,0,0,1,0-.18Z" style="fill:#9a4a4d"></path><path d="M354.06,126.31a5.51,5.51,0,1,0,8.2-4.38,7.51,7.51,0,0,1-.76.73,4.5,4.5,0,1,1-6.43,3.72,4.45,4.45,0,0,1,.75-2.16,4.36,4.36,0,0,1,1.9-1.62.5.5,0,0,0,.26-.66.51.51,0,0,0-.67-.26,5.49,5.49,0,0,0-3.25,4.63Z" style="fill:#5487F9"></path></g><path d="M350.56,168.67c-2.53-2.44-7-6.66-9.08-6.43s-6.07,1-6.07,1Z" style="fill:#9a4a4d"></path><path d="M353.61,170.48c-9.64-5.61-8.29-5.65-14.87-7.34s-11.41-2.69-15.08-3.6-5-1.19-5.09.42,2.23,3.18,5,4.4l7.47,3.33s-2,2.11-3.17,3.47a2.79,2.79,0,0,0,.53,4.39c-1,1.43-1.14,3.87.69,4.56.16,2.59,1,3.19,2.48,3.56a7.92,7.92,0,0,0,4.35.13,14.11,14.11,0,0,0,2.34-1.3c2.19,1.88,5.72,5,11.12,3.79,3.1-.81,12.45,6.22,12.45,6.22,5.7-2.28,6-8.11,4-15.39C365.78,177.12,357.89,173,353.61,170.48Z" style="fill:#b16668"></path><path d="M328.92,166.16c1.43.4,2.36.07,3.89.83a2.28,2.28,0,0,0-1.81.7l-6.65-3S327.48,165.76,328.92,166.16Z" style="fill:#9a4a4d"></path><path d="M328.36,175.55a10.85,10.85,0,0,1,1.77-3.17,7.67,7.67,0,0,1,1.3-1.31,2.2,2.2,0,0,1,1.75-.59,1.51,1.51,0,0,0-.75.42,6.79,6.79,0,0,0-.6.6q-.57.65-1.11,1.35A26.82,26.82,0,0,1,328.36,175.55Z" style="fill:#9a4a4d"></path><path d="M329.05,180.11a3.63,3.63,0,0,1,.57-1.75,10.41,10.41,0,0,1,1-1.52,11.23,11.23,0,0,1,1.26-1.32,4.28,4.28,0,0,1,1.58-1,14.53,14.53,0,0,0-1.15,1.36l-1.11,1.39-1.13,1.37A9.23,9.23,0,0,0,329.05,180.11Z" style="fill:#9a4a4d"></path><path d="M338.22,182.5a10.17,10.17,0,0,1-1.31-.85,2.32,2.32,0,0,0-1.2-.52,1.64,1.64,0,0,0-.6.1c-.23.08-.47.19-.71.27a8.91,8.91,0,0,1-1.52.41,9.07,9.07,0,0,1,1.27-.94c.22-.14.45-.26.69-.4a2.12,2.12,0,0,1,.91-.18,2.27,2.27,0,0,1,1.54.82A7.66,7.66,0,0,1,338.22,182.5Z" style="fill:#9a4a4d"></path><path d="M335,179a1.39,1.39,0,0,0,.44.64c.17.15.39.31.61.48a3.66,3.66,0,0,1,1.12,1.35,3.81,3.81,0,0,1-1.59-.77A2.33,2.33,0,0,1,335,180,1,1,0,0,1,335,179Z" style="fill:#9a4a4d"></path><path d="M382,150.13,380.4,178.2l-.16,2.9-1.19,20.55a43.36,43.36,0,0,1-8.72-2.81c-8.12-3.38-10.88-4.89-12.17-6.43a4.81,4.81,0,0,1-1.15-3.13h0v0l.63.43.05,0,.71.45,0,0c.14,0,5.46-.05,5.57-7.62.07-5.52-2.69-7.73-3-8l0,0-.12-.07-.39-.22-.7-.37-.08,0-.82-.44-.13-.07s.32-1.25,2.87-.52l.49.16a35.21,35.21,0,0,1,3.64,1.4l-1.53-3.08L363,169.05h0l-1.4-2.78s-7.31-14.21.76-27.88h0c3.74,1.23,14-2,18.53,9C381.26,148.12,381.63,149.06,382,150.13Z" style="fill:#e0e0e0"></path><path d="M380.4,178.2l-.16,2.9c-4.5-3.45-8.56-4.68-14.53-6.71h0l-1.53-3.08s4,1.08,7.44,2.3A39.83,39.83,0,0,1,380.4,178.2Z" style="opacity:0.1"></path></g></g></g><g id="freepik--Shines--inject-4" style="opacity:0.1"><polygon points="295.16 202.78 294.44 215.16 388.77 120.83 389.49 108.45 295.16 202.78" style="fill:#5487F9"></polygon><polygon points="303.22 63.29 302.51 75.67 328.33 49.85 320.94 45.58 303.22 63.29" style="fill:#5487F9"></polygon><polygon points="358.63 67.34 340.19 56.69 301.36 95.52 299.57 126.39 358.63 67.34" style="fill:#5487F9"></polygon><polygon points="387.76 138.28 293.43 232.61 292.15 254.79 386.48 160.47 387.76 138.28" style="fill:#5487F9"></polygon><polygon points="377.43 317.01 379.21 286.13 316.1 349.25 334.54 359.9 377.43 317.01" style="fill:#5487F9"></polygon><polygon points="380.46 264.61 381.17 252.22 295.84 337.55 303.24 341.82 380.46 264.61" style="fill:#5487F9"></polygon><polygon points="385.02 185.65 385.74 173.26 291.41 267.59 290.69 279.97 385.02 185.65" style="fill:#5487F9"></polygon></g></g></g><g id="freepik--character-1--inject-4"><g id="freepik--character--inject-4"><g id="freepik--bottom--inject-4"><path d="M188.28,392.29c-.86-1.05-1.64-1.59-2.09-5.28-.66-5.29-.06-17.31.6-45.95l-25.5,6.12s4.5,19.94,6.31,29c.73,3.66,1.58,8.51,1.56,9.18a5.71,5.71,0,0,1,.1,1c-.24,5.46,6.88,8,11.52,11.85a89.19,89.19,0,0,0,12.6,9.12c3.42,1.93,10.51,2.43,11.49.22C199.23,402.83,192.69,397.62,188.28,392.29Z" style="fill:#b16668"></path><path d="M214.57,413.94c.3,0,.6,3.35-1.1,4.68-2,1.53-7.62,3.93-14.87,2.63s-11.1-3.74-13.9-6.33-6.73-6.23-10-7.12c-3-.82-6.3-2.37-7.24-3.37s-.59-5.2-.59-5.2Z" style="fill:#263238"></path><path d="M169,383.88s-.43,0-.66.93c-.28,1.15,0,4-.5,5.87-1.41,5.27-1.17,7.83-.88,10s5.23,3.92,8.37,5.29a40.74,40.74,0,0,1,10,7c3.29,3,10.37,6.18,15.12,6.47,7.26.46,12.06-1.28,13.64-3.82,2-3.15.63-5.09-7.53-9.36-1.54-.8-6.93-4.36-8.77-5.64a42.07,42.07,0,0,1-5.47-4.5,33.62,33.62,0,0,1-2.43-2.64,11.81,11.81,0,0,1-2-2.8c-.08-.23-.13-.49-.21-.72a12.44,12.44,0,0,1-.45-2c-.1-.7-.13-1.71-.77-2.16a5.67,5.67,0,0,0-3-.5,23.51,23.51,0,0,0-3.24.3c-1.24.22-2.67.26-3.45,1.38a6.23,6.23,0,0,0-.84,3c0,.49,0,1-.08,1.47,0,.2.06.58-.23.48s-.55-.84-.64-1.09c-.21-.56-.33-1.15-.55-1.7a8.71,8.71,0,0,0-1-1.81c-.37-.51-1.61-.55-2.19-.78a7.42,7.42,0,0,1-2.1-1.44Z" style="fill:#37474f"></path><path d="M207.89,407c-10.55.21-14.18,6.55-14.82,10.55a24.89,24.89,0,0,0,7.39,1.92c7.26.46,12.36-1.27,13.94-3.81C216.24,412.72,215.21,410.21,207.89,407Z" style="fill:#fafafa"></path><path d="M192.12,406.36a.44.44,0,0,1-.32-.13.51.51,0,0,1,0-.72,12.35,12.35,0,0,1,9.69-3.29.51.51,0,1,1-.16,1,11.46,11.46,0,0,0-8.76,3A.51.51,0,0,1,192.12,406.36Z" style="fill:#f0f0f0"></path><path d="M187.72,403.51a.54.54,0,0,1-.32-.13.52.52,0,0,1,0-.73,12.35,12.35,0,0,1,9.69-3.29.52.52,0,0,1,.43.59.5.5,0,0,1-.59.42,11.46,11.46,0,0,0-8.77,3A.51.51,0,0,1,187.72,403.51Z" style="fill:#f0f0f0"></path><path d="M183.67,400.29a.48.48,0,0,1-.32-.13.52.52,0,0,1,0-.73,12.4,12.4,0,0,1,9.69-3.29.52.52,0,0,1,.43.59.52.52,0,0,1-.59.43,11.5,11.5,0,0,0-8.77,3A.48.48,0,0,1,183.67,400.29Z" style="fill:#f0f0f0"></path><path d="M179.7,397.08a.53.53,0,0,1-.31-.13.5.5,0,0,1,0-.72c2.13-2.45,6.77-3.91,10.56-3.3a.5.5,0,0,1,.43.58.51.51,0,0,1-.58.43c-3.42-.54-7.74.8-9.64,3A.49.49,0,0,1,179.7,397.08Z" style="fill:#f0f0f0"></path><path d="M106.13,347.07c.16,21.08.48,34.91,0,44-.14,2.81-1.51,24.63-1.11,30.5.61,8.82,11.77,8.83,12.9,3.72s4.61-29.67,5.11-31.91c2.08-9.23,9.1-43,9.1-43Z" style="fill:#b16668"></path><path d="M121.39,428.9c-.37,5.1-1.21,8.47-3.06,11.44s-5.28,3.87-8.73,3-7.85-3.33-8.78-7.74-1.48-7.45-.63-12.17Z" style="fill:#263238"></path><path d="M106.14,391.05c-1.42.1-.76,7.63-1.67,14.48-1,7.35-3.22,10.36-4.08,16.38-1,6.88.11,10,2.47,14.18s10.86,8.39,15.15,2.48c3.49-4.82,3.71-10.21,3.48-17.1a153.45,153.45,0,0,1,.69-17.43c.34-5.16,2.09-10.09.86-10.68a19.48,19.48,0,0,1-.52,2.29c-.26.89-.49,1.79-.84,2.66-.15.38-.47.78-.59.15a3.93,3.93,0,0,1,0-1.28c.23-1.9-.73-2.07-1.24-2.22a62.53,62.53,0,0,0-6.6-1c-1.09-.09-5.63-.17-6.13.45a4.28,4.28,0,0,0-.5,2c-.14,1-.39,1.8-.42,1.47C106.17,397.1,106.11,391.49,106.14,391.05Z" style="fill:#37474f"></path><path d="M99.94,425.9a17.2,17.2,0,0,0,2.53,10.51c2.36,4.2,11.55,8.42,15.84,2.5,2.13-2.94,2.74-6.44,3.07-10C118.92,424.26,104,422,99.94,425.9Z" style="fill:#fafafa"></path><path d="M118.37,421.36l-.18-.05s-6.62-2.84-13.06-1.44a.55.55,0,0,1-.63-.41.54.54,0,0,1,.41-.63c6.81-1.48,13.5,1.41,13.75,1.53a.52.52,0,0,1,.24.71A.54.54,0,0,1,118.37,421.36Z" style="fill:#f0f0f0"></path><path d="M105.52,414.74a.55.55,0,0,1-.45-.37.54.54,0,0,1,.34-.66c6.43-2.09,13.48,1.26,13.74,1.4a.53.53,0,0,1,.22.72.55.55,0,0,1-.72.21c-.06,0-6.93-3.27-12.91-1.33A.56.56,0,0,1,105.52,414.74Z" style="fill:#f0f0f0"></path><path d="M105.81,409.9a.54.54,0,0,1-.44-.36.52.52,0,0,1,.32-.67c7.07-2.43,13.76,1.21,14,1.37a.52.52,0,0,1,.17.73.53.53,0,0,1-.73.16s-6.52-3.52-13.09-1.26A.63.63,0,0,1,105.81,409.9Z" style="fill:#f0f0f0"></path><path d="M106.22,405.13a.53.53,0,0,1-.44-.34.53.53,0,0,1,.32-.68c6.62-2.38,13.82,1.35,14.09,1.52a.52.52,0,1,1-.54.9c-.06,0-7-3.64-13.19-1.43A.5.5,0,0,1,106.22,405.13Z" style="fill:#ebebeb"></path><path d="M122.58,189.78c-6.64,9-14,20-13.57,48.59.59,36.51,1.26,53,.75,57.06s-2.75,4.2-4.85,24.28c-1.81,17.27.42,51.68.42,51.68s2.39,3,10.08,3.66c8.2.7,12.57-1.9,12.57-1.9s8-39.51,10.87-51.58c3.23-13.76,9.71-52.83,9.71-52.83l7.2,28.46a76,76,0,0,0,.23,25.54c3.39,17.42,8.16,40.71,8.16,40.71a34,34,0,0,0,10.68,1.23c9.45-.38,11.73-5.53,11.73-5.53s1.71-48,2.09-68c.41-21.24.12-68.66-4.13-101.37Z" style="fill:#37474f"></path><path d="M160,226.73l-11.47,42,7.2,28.46-4.5-28.64,10.16-35.22c4.9-.71,16.34-5.45,20.1-13.38C173.41,227,160,226.73,160,226.73Z" style="fill:#263238"></path><path d="M128.72,327c-2.1,10.35-4.6,25.89-6.53,36.28,2.74-10.21,6-25.58,8.15-35.91,6.07-29.08,8.62-52.07,10-62.55s2.47-21,3.44-31.51c-1.79,10.41-3.43,20.85-5.07,31.27S135,296.38,128.72,327Z" style="fill:#263238"></path><path d="M182.55,278.23c.33,4.58.71,9.17.75,13.7s-.14,9.16-.26,13.75l-.35,13.79q-.36,13.78-.41,27.6,1.28-13.76,2.07-27.54c.52-9.19,1-18.35,1.08-27.62-.26-9.3-1.28-18.42-2.33-27.58s-2.41-18.26-4-27.32l2.4,27.49C181.82,269.08,182.23,273.65,182.55,278.23Z" style="fill:#263238"></path></g><g id="freepik--top--inject-4"><g id="freepik--Arm--inject-4"><path d="M266.47,141.27c-.93-1.87-2.1-.66-2.73-.8,0,0,2.7-.78,1.11-4-1-2-3.21-.26-3.05-.58.07-.14,3.9-2.66,8-5.5,3.88-2.69,3-3.66,2.55-4.34s-.87-1.75-4,0S257,132.41,255,133.47s-3.18,1.4-2.36-1.14,1.5-4.63,1.13-6.63c-.63-3.34-2.75-3.43-3.47-1.65-1,2.52-2.74,5.11-4.8,9-1.07,2-2,4-2.81,5.27-1.83,2.8-5,4.29-10.46,5.81A117.81,117.81,0,0,1,218,147.72c-9.29,1.92-18,15.48-13.53,21.16,2.57,3.28,9.45,5.11,18.72,1,7.86-3.46,14.71-9.52,17.83-11.1s4.68-2.78,7.54-2.7c3.88.11,6.3-.9,9.58-2.58,1.57-.81,4.51-2.26,6.66-3.58s3.13-2.62,2.57-4.15c-.76-2.08-2.27-.71-2.31-1S267.78,143.93,266.47,141.27Z" style="fill:#b16668"></path><path d="M258.14,149.5c0-1.06,1.34-2.07,1.34-2.07a3,3,0,0,1-1.89.24,2.23,2.23,0,0,1-1.5-2.33c.19-.86,1.44-1.55,1.44-1.55a3.6,3.6,0,0,1-1.76-.14,1.87,1.87,0,0,1-1-2.51c.34-1.19,3.12-2.9,5.79-4.36a13.37,13.37,0,0,0-3.46,1.32,7.12,7.12,0,0,0-3.07,2.37,7.54,7.54,0,0,0-1.1-3.52c.75,3.39-1.36,9.85-4.62,12.91a9.58,9.58,0,0,0,5.49-6.7,2,2,0,0,0,2,1.11,2.34,2.34,0,0,0-.2,2.78,2.29,2.29,0,0,0,2.1,1.42s-.8.65-.08,1.92,2,1.23,3.26.57A2,2,0,0,1,258.14,149.5Z" style="fill:#9a4a4d"></path></g><path d="M159.37,123.75c5.6.1,9.28-1.41,13.83-.53,6.62,1.27,8.13,3.79,13.48,9.46,6.78,7.19,16.76,17.35,16.76,17.35s9.24-2.66,16.84-4.77,13.58-4.56,14.29-1.86L231,144.46s-4.25,3-2.78,11.12c1.23,6.8,6.72,7.27,6.72,7.27l3.44-2.32a5.25,5.25,0,0,1-2.46,5.83c-3.53,2.11-23.65,8.75-30.2,10.61s-8.29.62-15.48-4.81S163.88,150,163.88,150Z" style="fill:#e0e0e0"></path><path d="M203.44,150c-4.66,1.45-9.19,6.65-9.47,10.65-2.1-8,7.67-12.48,7.67-12.48Z" style="opacity:0.1"></path><path d="M182.61,194.28c3-3.26,2.06-8.46,0-13.37-.28-7.45,0-14.55,0-14.55l-57.21,8.92c1.81,8,1.52,6.7-2.84,14.5C134.59,206.17,176.84,202.68,182.61,194.28Z" style="fill:#b16668"></path><path d="M182.93,179.28c.66-2.79.64-11.44.08-16,2.44-3.7,5.14-9,2.73-15.11-2.17-5.54-5-9-12.88-15.5a85.09,85.09,0,0,0-13.49-8.89l-13.81-.85L132.06,124s-1.35.43-6,2.2a66.26,66.26,0,0,0-8.58,3.56c-2.59,1.46-4.62,14.25-.4,23.91,3.55,8.12,7.55,20.22,8.72,27.33C138.1,189.43,175.53,188.81,182.93,179.28Z" style="fill:#455a64"></path><path d="M168.65,164.29C165.24,169,151.55,176,141,168.5,144.26,178.14,166.19,176.81,168.65,164.29Z" style="fill:#37474f"></path><g id="freepik--head--inject-4"><path d="M164.33,85.42a5.9,5.9,0,0,0,3.36,1.52c1.26.12,2.72-.11,3.65.76a1.94,1.94,0,0,1-.79,3.28,4,4,0,0,0,3-6.38c-.53-.71-1.28-1.23-1.73-2a3,3,0,0,1-.24-2.55c.47-1.28,1.37-1.87,1.9-3.12a6.16,6.16,0,0,0,.58-3.06,7.17,7.17,0,0,0-1.4-3.5c-1.75-2.13-5.54-3-8.17-3.32.51-1.74.36-4.84-3.36-7.4a9.41,9.41,0,0,0-10.11,0,5.85,5.85,0,0,0-3.8-5,11.85,11.85,0,0,0-6.55-.39c-3.53.6-7.34,2.35-8.43,5.76a10.86,10.86,0,0,0-11.12,3.43,10.08,10.08,0,0,0-.55,11.55c-7.19,4.25-7.54,13.52-5.29,19.9,2,5.51,5.92,7.65,10.53,12.73.88,1,5.25,5.42,5.38,6.72Z" style="fill:#263238"></path><path d="M152.62,69.66c-15-3.23-29.93,9.53-30.2,26.67-1.85-10.28-.17-16.38,5.17-21.88C136.16,65.63,147.58,66.24,152.62,69.66Z" style="fill:#5487F9"></path><path d="M159.69,75.8s5.42,4.41,6.32,21.6c.65,12.34-1.5,17-5.19,19.16-2.2,1.27-5.07,1.82-8.93,2l.28,5.41s13.18,12.14,3.29,14.22c-5.26,1.1-10.66-1.16-15.45-3.68a21.45,21.45,0,0,1-7.74-7.82l-1.17-14.85s-3.32,3-7.58-.17c-3.83-2.84-5-8.1-2.71-11.41s6.35-2.89,9.05.73c0,0,4.08,1.09,3.15-4.14,0,0,3-1.45,4.12-6.87.58-2.77-2.42-8.07-.4-10.23,3.12-2.49,9.28,1,15,.68C154.61,80.3,157.62,76.38,159.69,75.8Z" style="fill:#b16668"></path><path d="M147.84,103.8l5.68,3a3.14,3.14,0,0,1-4.29,1.46A3.35,3.35,0,0,1,147.84,103.8Z" style="fill:#9a4a4d"></path><path d="M148.22,105.48a2.72,2.72,0,0,1,2.48,3,.8.8,0,0,1,0,.15,2.88,2.88,0,0,1-1.44-.34,3.27,3.27,0,0,1-1.72-2.71A2.8,2.8,0,0,1,148.22,105.48Z" style="fill:#f28f8f"></path><path d="M162.17,88.25,158,86.83a2.13,2.13,0,0,1,2.73-1.43A2.32,2.32,0,0,1,162.17,88.25Z" style="fill:#263238"></path><path d="M145.68,86.49l-4.46,3.43a2.7,2.7,0,0,1,.41-3.9A3,3,0,0,1,145.68,86.49Z" style="fill:#263238"></path><polygon points="151.74 90.39 154.46 103.13 160.85 99.3 151.74 90.39" style="fill:#9a4a4d"></polygon><path d="M151.89,118.58c-10.14-.23-15.17-2.36-17.3-5.76,0,0,1.23,4.54,4.62,6.07a31.14,31.14,0,0,0,12.8,2.27Z" style="fill:#9a4a4d"></path><path d="M158.52,91.94a2,2,0,0,0,2,2,1.92,1.92,0,0,0,2-1.89,2,2,0,0,0-2-2A1.9,1.9,0,0,0,158.52,91.94Z" style="fill:#263238"></path><path d="M144,95.33c.11,1.1,1-.75,2.29-1.15s2.92.71,2.45-.29a2.24,2.24,0,0,0-2.87-1.06A2.4,2.4,0,0,0,144,95.33Z" style="fill:#263238"></path><path d="M148.18,92.3a1.52,1.52,0,0,0-.54-.53,3.68,3.68,0,0,0-1.13-.54,4,4,0,0,0-1.08-.15,2.47,2.47,0,0,0-1.36.51,3.24,3.24,0,0,0-.59.58,1.21,1.21,0,0,0-.34.82c0,.05,0,.07.07.05s.15,0,.24-.06a3.08,3.08,0,0,0,.27-.24,2.62,2.62,0,0,1,.51-.3,3.81,3.81,0,0,1,1.28-.35,3.77,3.77,0,0,1,1.88.29c.16.07.64.42.82.24a.21.21,0,0,0,0-.19A.5.5,0,0,0,148.18,92.3Z" style="fill:#9a4a4d"></path><path d="M130.7,115.25a5.9,5.9,0,1,1-8.65-4.91,8.63,8.63,0,0,0,.8.8,4.82,4.82,0,1,0,6.77,4.16,4.9,4.9,0,0,0-2.72-4.12.52.52,0,0,1-.26-.71.54.54,0,0,1,.72-.26,5.91,5.91,0,0,1,3.34,5Z" style="fill:#5487F9"></path></g><path d="M133.23,160.68c2.78-2.54,7.65-6.93,9.9-6.62s6.46,1.22,6.46,1.22Z" style="fill:#9a4a4d"></path><path d="M129.92,162.52c10.47-5.72,9-5.81,16.11-7.43s12.29-2.54,16.24-3.41,5.38-1.13,5.44.6-2.48,3.33-5.44,4.56-8.09,3.35-8.09,3.35,2.07,2.31,3.3,3.8a3,3,0,0,1-.7,4.68c1,1.56,1.11,4.17-.87,4.87-.24,2.76-1.2,3.38-2.75,3.72a8.48,8.48,0,0,1-4.66,0,16,16,0,0,1-2.47-1.46c-2.39,1.94-6.26,5.19-12,3.73-3.29-.95-13.49,6.29-13.49,6.29-6-2.6-6.14-8.84-3.82-16.57C116.71,169.28,125.26,165.07,129.92,162.52Z" style="fill:#b16668"></path><path d="M156.46,158.61c-1.55.39-2.54,0-4.19.78a2.41,2.41,0,0,1,1.91.8l7.21-3S158,158.23,156.46,158.61Z" style="fill:#9a4a4d"></path><path d="M156.78,168.67a33.44,33.44,0,0,1-2.42-3c-.37-.51-.76-1-1.16-1.47a5.64,5.64,0,0,0-.63-.66,1.74,1.74,0,0,0-.8-.46,2.38,2.38,0,0,1,1.84.7,8.68,8.68,0,0,1,1.35,1.43A12.28,12.28,0,0,1,156.78,168.67Z" style="fill:#9a4a4d"></path><path d="M155.91,173.54a8.9,8.9,0,0,0-1.06-1.58l-1.17-1.5-1.15-1.52a13.87,13.87,0,0,0-1.21-1.47,4.55,4.55,0,0,1,1.65,1.08,12,12,0,0,1,2.37,3.1A4,4,0,0,1,155.91,173.54Z" style="fill:#9a4a4d"></path><path d="M146,175.83a8,8,0,0,1,1.05-1.34,2.48,2.48,0,0,1,1.66-.83,2.37,2.37,0,0,1,1,.22c.25.15.49.29.72.45a9.56,9.56,0,0,1,1.35,1,10.07,10.07,0,0,1-1.61-.5c-.26-.09-.51-.22-.75-.32a1.71,1.71,0,0,0-.66-.12,2.5,2.5,0,0,0-1.3.53A13.18,13.18,0,0,1,146,175.83Z" style="fill:#9a4a4d"></path><path d="M149.59,172.16a1,1,0,0,1,0,1,2.44,2.44,0,0,1-.68.74,4.35,4.35,0,0,1-1.71.8,4,4,0,0,1,1.25-1.39c.24-.18.48-.34.67-.5A1.48,1.48,0,0,0,149.59,172.16Z" style="fill:#9a4a4d"></path><path d="M121.45,127.93c-4,1.24-15-2.52-20.11,9.06-3.73,8.4-13.07,34.42-15.43,48.86-1.06,6.43,3.22,9.44,6.65,9.64,6.45.38,10.75-.05,18.64-3.1,8.79-3.39,11.8-4.92,13.21-6.54a5.11,5.11,0,0,0,1.33-3.35l-1.57,1s-5.83-.11-5.72-8.33c.09-6.29,3.51-8.48,3.51-8.48l2.43-1.23s-.35-1.51-3.6-.47a30.17,30.17,0,0,0-3.93,1.4l4.59-8.58S129.68,142.79,121.45,127.93Z" style="fill:#e0e0e0"></path><path d="M116.86,166.36c-6.57,2-11,3.24-16,7-4.28,3.17-6.38,5.62-8.41,10.22.29-3.58,2.26-7.6,5.91-11.39,2.5-2.6,8.51-5.62,12.24-6.82s8-2.24,8-2.24Z" style="opacity:0.1"></path></g></g></g><g id="freepik--speech-bubble--inject-4"><g id="freepik--speech-bubble--inject-4"><g id="freepik--speech-bubble--inject-4"><path d="M245.09,99.8a24.2,24.2,0,0,1-16.68,6.29l-2.78-.2a24.26,24.26,0,0,1,2.31-48.31l2.78.07A24.26,24.26,0,0,1,245.09,99.8Z" style="fill:#fff"></path><path d="M248.22,64.08a26.34,26.34,0,0,0-41.6,32L203,103.41a1.53,1.53,0,0,0,1.92,2.11l7.63-3a26.34,26.34,0,0,0,35.69-38.49Zm-3.1,35.69a24.15,24.15,0,0,1-16.67,6.32l-2.77-.19a24.26,24.26,0,0,1,2.22-48.32l2.78.07a24.25,24.25,0,0,1,14.44,42.12Z" style="fill:#455a64"></path></g><path id="freepik--Heart--inject-4" d="M228.71,93.81c-13.53-7.27-14.59-15-10.64-18.79,3.54-3.38,10-1.12,10.69,3.73.73-4.84,7.2-7.06,10.72-3.65C243.4,78.9,242.28,86.64,228.71,93.81Z" style="fill:#5487F9"></path></g></g><g id="freepik--Hearts--inject-4"><g id="freepik--hearts--inject-4"><path d="M76.57,194.84c-5.49-.69-9.4,4.73-7.83,11.73-4-6-10.61-6.86-13.89-2.4s2.8,16.43,21.23,19.48C86.55,208.18,82.06,195.53,76.57,194.84Z" style="fill:#5487F9"></path><path d="M72,159.36c-3.72-1.92-7.91.91-8.61,6.29-1.28-5.27-5.75-7.63-9.24-5.32s-2.28,12.39,10,19.35C75.62,171.43,75.72,161.28,72,159.36Z" style="fill:#5487F9"></path><path d="M72,159.36c-3.72-1.92-7.91.91-8.61,6.29-1.28-5.27-5.75-7.63-9.24-5.32s-2.28,12.39,10,19.35C75.62,171.43,75.72,161.28,72,159.36Z" style="fill:#fff;opacity:0.30000000000000004"></path><path d="M41.67,181.56c-3.42.15-5.23,3.87-3.53,8-3.07-3.21-7.2-3.06-8.73,0s3.44,9.72,15,9.64C49.16,188.64,45.09,181.4,41.67,181.56Z" style="fill:#5487F9"></path><path d="M41.67,181.56c-3.42.15-5.23,3.87-3.53,8-3.07-3.21-7.2-3.06-8.73,0s3.44,9.72,15,9.64C49.16,188.64,45.09,181.4,41.67,181.56Z" style="fill:#fff;opacity:0.6000000000000001"></path></g><g id="freepik--hearts--inject-4"><path d="M412.31,178.26c5.43-1,9.68,4.12,8.56,11.2,3.6-6.2,10.15-7.52,13.71-3.28s-1.75,16.57-19.94,20.8C403.2,192.22,406.87,179.3,412.31,178.26Z" style="fill:#5487F9"></path><path d="M413.86,146.05c3.39-2.44,7.95-.26,9.43,4.95.5-5.4,4.57-8.38,8.36-6.61s4.08,11.92-7,20.61C412.06,158.52,410.46,148.49,413.86,146.05Z" style="fill:#5487F9"></path><path d="M413.86,146.05c3.39-2.44,7.95-.26,9.43,4.95.5-5.4,4.57-8.38,8.36-6.61s4.08,11.92-7,20.61C412.06,158.52,410.46,148.49,413.86,146.05Z" style="fill:#fff;opacity:0.30000000000000004"></path><path d="M452.26,165.76c3.41.17,5.22,3.89,3.51,8,3.07-3.2,7.2-3,8.72,0s-3.46,9.71-15,9.6C444.75,172.82,448.84,165.59,452.26,165.76Z" style="fill:#5487F9"></path><path d="M452.26,165.76c3.41.17,5.22,3.89,3.51,8,3.07-3.2,7.2-3,8.72,0s-3.46,9.71-15,9.6C444.75,172.82,448.84,165.59,452.26,165.76Z" style="fill:#fff;opacity:0.6000000000000001"></path></g></g></svg>